<svg viewBox="0 0 33 33" xmlns="http://www.w3.org/2000/svg" fill="#6897bd">
  <path d="M3.5 3L17 1L30.5 3L33 17L30 31L17 33L3.5 31L1 17L3.5 3Z" fill="white" />
  <path
    d="M9.73028 1.18356C6.75994 1.48059 4.46853 2.22318 3.4077 3.22036C2.66511 3.8993 1.90131 5.5542 1.54062 7.16667C1.34967 7.95169 1.15872 10.328 1.09507 12.6406L0.967773 16.7354H1.58306C3.11066 16.7354 8.24511 16.2899 9.30594 16.0777C12.9764 15.3139 15.3315 12.9588 16.0741 9.30956C16.265 8.31237 16.7106 3.02941 16.7318 1.50181C16.7318 1.03504 16.7106 1.03504 13.6129 1.07747C11.8732 1.07747 10.1334 1.14112 9.73028 1.18356Z"
    fill="inheirt" />
  <path
    d="M17.1562 1.58667C17.1562 3.07185 17.6018 8.24872 17.814 9.30956C18.5353 12.9588 20.9116 15.3139 24.5821 16.0777C25.6429 16.2899 30.7774 16.7354 32.305 16.7354H32.9203L32.793 12.6406C32.5808 5.91488 31.7958 3.70835 29.1649 2.37169C27.5312 1.54424 25.6429 1.24721 21.2511 1.09869L17.1562 0.97139V1.58667Z"
    fill="inheirt" />
  <path
    d="M1.09507 21.2331C1.24359 25.6462 1.54062 27.5345 2.36808 29.1682C3.70473 31.799 5.93249 32.5841 12.6582 32.7962L16.7318 32.9235V32.3082C16.7318 30.7806 16.2862 25.6462 16.0741 24.5854C15.3103 20.9149 12.9552 18.5386 9.30594 17.8172C8.24511 17.605 3.06823 17.1595 1.58306 17.1595H0.967773L1.09507 21.2331Z"
    fill="inheirt" />
  <path
    d="M28.2102 17.3929C23.9668 17.6899 21.9724 18.3264 20.2539 19.9389C19.1506 20.9361 18.1747 22.8244 17.814 24.5854C17.6018 25.6462 17.1562 30.8231 17.1562 32.3082V32.9235L21.2511 32.7962C27.9556 32.5841 30.1833 31.799 31.52 29.1682C32.3474 27.5345 32.6445 25.6462 32.793 21.2331L32.9203 17.1595L31.7746 17.1807C31.1381 17.2019 29.5468 17.308 28.2102 17.3929Z"
    fill="inheirt" />
</svg>