<svg viewBox="0 0 34 39" xmlns="http://www.w3.org/2000/svg">
  <circle cx="17" cy="17" r="16" fill="white" />
  <path
    d="M16.9997 0.816589C8.03967 0.816589 0.79541 8.06085 0.79541 17.0209C0.79541 25.9809 8.03967 33.2251 16.9997 33.2251C17.381 33.2251 17.9529 33.2251 17.9529 33.2251V38.9443C17.9529 38.9443 33.204 31.3188 33.204 17.0209C33.204 8.06085 25.9597 0.816589 16.9997 0.816589ZM16.0465 17.9741C16.0465 19.6898 14.1401 21.7868 14.1401 21.7868H12.4244C12.4244 21.7868 14.3307 20.2617 14.3307 17.9741H10.3273V12.2549H16.0465C16.0465 12.2549 16.0465 15.877 16.0465 17.9741ZM23.672 17.9741C23.672 19.6898 21.7656 21.7868 21.7656 21.7868H20.0499C20.0499 21.7868 21.9563 20.2617 21.9563 17.9741H17.9529V12.2549H23.672C23.672 12.2549 23.672 15.877 23.672 17.9741Z"
    fill="inherit" />
</svg>