<svg viewBox="0 0 33 34" xmlns="http://www.w3.org/2000/svg">
  <circle cx="16.4286" cy="17.0594" r="16.4242" fill="inherit" />
  <path
    d="M9.03752 11.4575C8.78847 11.4575 8.55988 11.5307 8.36442 11.6511L15.8609 17.8518C16.2041 18.136 16.6666 18.136 17.0091 17.8518L24.4924 11.6511C24.297 11.5307 24.0684 11.4575 23.8193 11.4575H9.03752ZM7.84311 12.2899C7.79792 12.4175 7.77051 12.5534 7.77051 12.6964V20.9554C7.77051 21.2042 7.84697 21.4328 7.97509 21.6265L13.3401 16.8453L7.84311 12.2899ZM25.0137 12.2899L19.53 16.8388L24.8818 21.6265C25.0099 21.4328 25.0863 21.2042 25.0863 20.9554V12.6964C25.0863 12.5534 25.0589 12.4175 25.0137 12.2899ZM18.8833 17.3808L17.5503 18.4841C16.9056 19.019 15.958 19.0182 15.3132 18.4841L13.9868 17.3873L8.66139 22.1362C8.78055 22.1723 8.90592 22.1943 9.03752 22.1943H23.8193C23.9509 22.1943 24.0763 22.1723 24.1955 22.1362L18.8833 17.3808Z"
    fill="white" />
</svg>