<svg viewBox="0 0 33 34" xmlns="http://www.w3.org/2000/svg">
  <circle cx="16.4242" cy="17.0594" r="16.4242" fill="inherit" />
  <path
    d="M14.2561 10.0039C10.7543 10.0039 8.30462 12.7956 8.62003 15.5537C6.55763 15.9133 5 17.5321 5 19.4689C5 21.6699 7.00927 23.4542 9.4878 23.4542H23.2317C26.0839 23.4542 28 21.7928 28 19.718C28 17.983 26.624 16.2783 24.6341 15.9818C24.6341 12.9929 21.5488 11.7475 19.3049 12.7438C18.4634 11.2493 16.6536 10.0039 14.2561 10.0039Z"
    fill="white" />
  <rect x="5.15186" y="20.9574" width="8.98676" height="1.52318" transform="rotate(-37.4933 5.15186 20.9574)"
    fill="inherit" />
  <rect x="17.6421" y="19.9219" width="8.98676" height="1.52318" transform="rotate(-46.9506 17.6421 19.9219)"
    fill="inherit" />
  <rect x="18.8184" y="21.5481" width="8.98676" height="1.52318" transform="rotate(-135 18.8184 21.5481)"
    fill="inherit" />
  <circle cx="13.4533" cy="15.2589" r="1.75166" fill="inherit" />
  <circle cx="18.7849" cy="19.8282" r="1.75166" fill="inherit" />
</svg>