<svg viewBox="0 0 29 29" xmlns="http://www.w3.org/2000/svg">
  <path
    d="M14.5001 0.719727C6.9021 0.719727 0.725098 6.85413 0.725098 14.3997C0.725098 21.9453 6.9021 28.0797 14.5001 28.0797C22.0981 28.0797 28.2751 21.9453 28.2751 14.3997C28.2751 6.85413 22.0981 0.719727 14.5001 0.719727ZM22.0691 19.4685C21.8081 20.1021 21.3441 20.7357 21.0541 21.0237C19.4011 22.6653 14.9641 21.1965 11.3101 17.5677C7.6561 13.9389 6.1771 9.56133 7.8301 7.89093C8.1201 7.60293 8.7871 7.14213 9.3961 6.88293C9.8601 6.68133 10.4111 6.82533 10.7301 7.22853L12.5571 9.53253C12.9341 9.99333 12.8761 10.6845 12.4121 11.0877C11.9481 11.4909 11.6291 11.7789 11.5421 11.8653C10.8461 12.5565 11.8611 14.0253 13.3981 15.5517C14.9351 17.0781 16.3851 18.1149 17.1101 17.3949C17.1971 17.3085 17.4871 16.9917 17.8931 16.5309C18.2991 16.0701 18.9661 16.0125 19.4591 16.3869L21.7791 18.2013C22.1561 18.4317 22.2721 18.9789 22.0691 19.4685Z" />
</svg>