<svg viewBox="0 0 34 34" xmlns="http://www.w3.org/2000/svg" fill="#6897bd">
  <circle cx="17.0029" cy="16.9473" r="16.4242" fill="inherit" />
  <path
    d="M26.2866 18.0572C26.2226 18.2389 26.09 18.391 25.9147 18.4839L25.9146 18.484L12.0503 25.9145L12.0502 25.9146C11.9258 25.9812 11.7854 26.0156 11.6428 26.0142C11.5003 26.0129 11.3606 25.976 11.2376 25.907C11.1147 25.8381 11.0126 25.7396 10.9417 25.6213C10.8708 25.503 10.8336 25.3691 10.8336 25.2328V22.4366L9.78412 22.734C9.63124 22.7773 9.46855 22.7769 9.31599 22.7328C9.16333 22.6888 9.02758 22.6031 8.92525 22.4862C8.82302 22.3692 8.7587 22.2263 8.74032 22.0749C8.72194 21.9234 8.75024 21.7702 8.82177 21.634L10.8336 17.8022L8.82166 13.9703C8.75024 13.8341 8.72194 13.6808 8.74032 13.5294C8.7588 13.378 8.82312 13.2351 8.92535 13.1181C9.02769 13.0013 9.16344 12.9155 9.3161 12.8715C9.46866 12.8275 9.63135 12.8271 9.78422 12.8704L9.78443 12.8705L10.8336 13.1678V10.3716C10.8336 10.2353 10.8708 10.1013 10.9417 9.98305C11.0126 9.86471 11.1147 9.76624 11.2377 9.69733C11.3607 9.62842 11.5004 9.59147 11.6429 9.59008C11.7855 9.58878 11.9259 9.62323 12.0503 9.68984L25.9146 17.1204C26.0899 17.2133 26.2226 17.3655 26.2866 17.5471C26.3475 17.7122 26.3475 17.8922 26.2866 18.0572Z"
    fill="inherit" />
  <path
    d="M26.2828 18.0476C26.2196 18.2083 26.0887 18.3429 25.9156 18.4251L12.2324 24.9984C12.1097 25.0574 11.9711 25.0877 11.8304 25.0866C11.6898 25.0854 11.5519 25.0527 11.4305 24.9917C11.3091 24.9308 11.2085 24.8436 11.1385 24.739C11.0685 24.6344 11.0317 24.5159 11.0317 24.3953V21.9217L26.2828 18.0476Z"
    fill="white" />
  <path
    d="M10.837 10.5473C10.8334 10.4067 10.8666 10.2674 10.9335 10.1437C11.0003 10.0198 11.0983 9.91559 11.2179 9.84139C11.3373 9.76718 11.4742 9.72552 11.6149 9.72058C11.7555 9.71563 11.8949 9.74752 12.0194 9.8131L25.8946 17.1286C26.07 17.22 26.205 17.3737 26.2729 17.5595L10.911 13.4321L10.837 10.5473Z"
    fill="#dcdcdc" />
  <path
    d="M26.2866 18.0436L9.78412 22.4647C9.63124 22.5056 9.46855 22.5052 9.31599 22.4636C9.16333 22.422 9.02758 22.3409 8.92525 22.2304C8.82302 22.1199 8.7587 21.9847 8.74032 21.8416C8.72194 21.6985 8.75024 21.5536 8.82177 21.4248L10.8336 17.8025H26.3323C26.3317 17.8846 26.3164 17.966 26.2866 18.0436Z"
    fill="#dcdcdc" />
  <path
    d="M10.8336 17.8015L8.82167 14.179C8.75014 14.0503 8.72195 13.9054 8.74033 13.7623C8.75871 13.6191 8.82303 13.484 8.92536 13.3735C9.0277 13.263 9.16345 13.1819 9.31611 13.1404C9.46867 13.0987 9.63136 13.0984 9.78423 13.1393H9.78444L26.2866 17.5604C26.3164 17.638 26.3317 17.7194 26.3323 17.8015H10.8336Z"
    fill="white" />
</svg>