<svg viewBox="0 0 73 73" xmlns="http://www.w3.org/2000/svg">
  <path
    d="M37.556 42.996c-.354-.355-.785-.608-1.256-.742.832-1.128.756-2.749-.286-3.793-.346-.347-.764-.596-1.22-.732l.463-.465c1.108-1.111 1.146-2.886.087-4.042-.537-.587-1.286-.91-2.108-.91-.502 0-.998.126-1.437.357-.111-.459-.334-.898-.672-1.272-1.145-1.267-3.135-1.197-4.303-.026l-5.182 5.197.002-.139c0-1.488-.578-2.887-1.628-3.94l-.541-.543-8.969 8.994c-1.969 1.974-2.791 4.824-2.197 7.533l-2.115 2.12-.641-.643-5.239 5.253 1.082 1.085 4.157-4.168 5.207 5.221 5.207 5.221-4.157 4.168 1.082 1.085 5.239-5.253-.641-.643 2.115-2.12c.575.127 1.161.191 1.75.191 2.176 0 4.223-.85 5.762-2.393l10.438-10.467c1.159-1.161 1.119-3.013 0-4.134zm-1.082 3.048l-10.439 10.467c-1.25 1.253-2.912 1.944-4.68 1.944-.602 0-1.2-.082-1.78-.245l-.431-.121-2.737 2.744-4.566-4.578-4.566-4.578 2.737-2.744-.12-.432c-.641-2.305.008-4.787 1.695-6.477l7.836-7.857c.448.663.689 1.443.689 2.261 0 1.078-.42 2.093-1.183 2.859l-3.81 3.82 1.082 1.085 3.81-3.82.005-.005 7.889-7.911c.561-.563 1.583-.587 2.087-.029.493.546.471 1.384-.052 1.908l-5.378 5.393 1.082 1.085 5.378-5.393.004-.004 1.118-1.121c.557-.558 1.572-.584 2.073-.036.502.548.483 1.392-.043 1.919l-2.276 2.282-4.3 4.312 1.082 1.085 4.302-4.313c.52-.52 1.429-.52 1.948.001.534.536.543 1.411 0 1.956l-1.494 1.498.001.001-4.983 4.996 1.082 1.085 4.991-5.004c.523-.514 1.428-.514 1.945.004.519.519.561 1.401 0 1.963zM24.477 52.68l1.082 1.085 1.082-1.085-1.082-1.085-1.082 1.085zM19.892 54.338l-.413 1.478.709.199c.308.087.628.139.95.155l.078-1.532c-.209-.011-.416-.045-.615-.1l-.709-.199zM23.346 53.813c-.276.277-.597.489-.953.63l.564 1.427c.551-.219 1.046-.545 1.468-.969l.049-.049-.539-.545-.59-.494zM46.358 15.748l1.082 1.085 1.082-1.085-1.082-1.085-1.082 1.085zM51.862 12.257l-.076 1.533c.208.011.414.044.614.1l.709.199.413-1.478-.708-.199c-.31-.087-.63-.139-.951-.156zM48.574 13.526l-.049.049.539.545.59.494c.277-.277.597-.489.953-.63l-.563-1.427c-.551.219-1.046.546-1.468.969zM71.604 12.14l-4.157 4.168c-3.642-3.652-6.772-6.79-10.415-10.442l4.157-4.168-1.082-1.085-5.239 5.253.641.643-2.114 2.12c-2.604-.576-5.456.14-7.513 2.202l-10.439 10.467c-1.158 1.161-1.119 3.012 0 4.133.355.356.786.608 1.257.742-.839 1.141-.744 2.761.285 3.793.346.347.764.596 1.22.732l-.463.465c-1.108 1.111-1.146 2.886-.087 4.042.927 1.013 2.402 1.155 3.546.553.111.46.334.898.672 1.273 1.153 1.274 3.143 1.19 4.303.025l5.182-5.196-.002.139c0 1.488.578 2.887 1.628 3.94l.541.543 8.97-8.994c1.969-1.975 2.791-4.825 2.196-7.533l2.114-2.12.641.643 5.239-5.253-1.082-1.085zm-8.617 7.354l.12.432c.642 2.304-.008 4.786-1.694 6.477l-7.837 7.857c-.448-.662-.689-1.443-.689-2.261 0-1.078.42-2.093 1.183-2.859l3.81-3.82-1.082-1.085-3.81 3.82-.005.005-7.889 7.911c-.561.563-1.584.586-2.087.029-.493-.546-.471-1.384.052-1.908l5.378-5.393-1.082-1.085-5.378 5.393-1.121 1.124c-.556.557-1.572.584-2.074.037-.502-.549-.483-1.392.043-1.919l2.276-2.282 4.3-4.312-1.082-1.085-4.302 4.314c-.52.518-1.428.519-1.948-.002-.537-.539-.537-1.417 0-1.956l1.494-1.498-.001-.001 4.983-4.996-1.082-1.085-4.988 5.002c-.523.517-1.432.517-1.949-.001-.519-.519-.561-1.401 0-1.963l10.438-10.467c1.745-1.749 4.221-2.326 6.461-1.699l.431.12 2.736-2.744c3.194 3.202 5.939 5.954 9.132 9.156l-2.737 2.744zM30.083 71.052h-1.531v1.535h1.531v-1.535zM33.144 71.052h-1.531v1.535h1.531v-1.535zM36.205 71.052h-1.531v1.535h1.531v-1.535zM52.075 63.147h-1.531v1.535h1.531v-1.535zM45.953 63.147h-1.531v1.535h1.531v-1.535zM49.014 63.147h-1.531v1.535h1.531v-1.535zM56.361 39.383h-1.531v1.535h1.531v-1.535zM53.3 39.383h-1.531v1.535h1.531v-1.535zM50.239 39.383h-1.531v1.535h1.531v-1.535zM60.512 47.727h-1.531v1.535h1.531v-1.535zM66.634 47.727h-1.531v1.535h1.531v-1.535zM63.573 47.727h-1.531v1.535h1.531v-1.535zM47.129 53.27h1.889v1.895h1.531v-1.895h1.89v-1.535h-1.89v-1.894h-1.531v1.894h-1.889v1.535zM66.234 67.529h-1.889v-1.895h-1.531v1.895h-1.89v1.535h1.89v1.895h1.531v-1.895h1.889v-1.535zM36.477 61.066h-1.89v-1.895h-1.531v1.895h-1.889v1.535h1.889v1.894h1.531v-1.894h1.89v-1.535zM32.96 2.914h-1.531v1.535h1.531v-1.535zM36.021 2.914h-1.531v1.535h1.531v-1.535zM39.082 2.914h-1.531v1.535h1.531v-1.535zM20.152 10.819h-1.531v1.535h1.531v-1.535zM17.091 10.819h-1.531v1.535h1.531v-1.535zM23.213 10.819h-1.531v1.535h1.531v-1.535zM8.653 26.239h-1.531v1.535h1.531v-1.535zM2.531 26.239h-1.531v1.535h1.531v-1.535zM5.592 26.239h-1.531v1.535h1.531v-1.535zM18.616 25.659v-1.894h1.889v-1.535h-1.889v-1.895h-1.531v1.895h-1.89v1.535h1.89v1.894h1.531zM6.71 6.437h-1.89v-1.895h-1.531v1.895h-1.889v1.535h1.889v1.895h1.531v-1.895h1.89v-1.535zM34.579 16.329v-1.895h1.889v-1.535h-1.889v-1.894h-1.531v1.894h-1.89v1.535h1.89v1.895h1.531z" />
  </svg>