<svg viewBox="0 0 60 67" xmlns="http://www.w3.org/2000/svg">
  <path
    d="M25.363 23.199h-1.367v1.517h1.367v-1.517zM36.618 23.199h-1.367v1.517h1.367v-1.517zM18.067 28.9h-1.367v1.371h1.367v-1.371zM18.067 26.158h-1.367v1.371h1.367v-1.371zM18.067 23.415h-1.367v1.372h1.367v-1.372zM37.447 9.356v1.371c.404 0 .806.047 1.194.141l.32-1.333c-.493-.119-1.003-.18-1.514-.18zM41.581 12.851c.236.327.433.681.586 1.053l1.264-.522c-.194-.472-.443-.921-.742-1.336l-1.108.804zM39.768 11.289c.356.183.693.41.999.674l.891-1.041c-.388-.333-.813-.621-1.264-.853l-.625 1.22zM20.118 15.843v17.235h3.878v14.682h12.623v-14.682h3.878v-17.235c0-1.687-1.368-3.058-3.049-3.058h-14.285c-1.678 0-3.044 1.372-3.044 3.058zm11.073-1.687l-.469 1.369h-.828l-.469-1.369h1.767zm.441 8.614l-1.324 1.751-1.325-1.752.999-5.873h.651l.999 5.873zm-3.654-8.614l.724 2.112-1.166 6.856 2.773 3.665 2.77-3.666-1.166-6.856.724-2.112h4.81c.927 0 1.682.757 1.682 1.687v15.863h-2.51v-5.588h-1.367v20.27h-4.262v-7.02h-1.367v7.02h-4.259v-20.271h-1.367v5.588h-2.51v-15.863c0-.93.752-1.687 1.677-1.687h4.816zM30.989 36.548h-1.367v1.449h1.367v-1.449zM35.473 5.686c0-2.857-2.318-5.182-5.167-5.182-2.849 0-5.167 2.325-5.167 5.182s2.318 5.182 5.167 5.182c2.849 0 5.167-2.325 5.167-5.182zm-8.966 0c0-2.101 1.704-3.811 3.799-3.811 2.095 0 3.799 1.709 3.799 3.811 0 2.101-1.704 3.811-3.799 3.811-2.095 0-3.799-1.709-3.799-3.811zM38.448 47.246h13.054v3.246l7.88-6.83-7.88-6.829v3.246h-13.054v7.167zm14.421-7.416l4.422 3.832-4.422 3.832v-7.663zm-13.054 1.62h11.686v4.425h-11.686v-4.425zM8.964 50.492v-3.246h13.054v-7.167h-13.054v-3.246l-7.88 6.829 7.88 6.83zm11.686-9.042v4.425h-11.686v-4.425h11.686zm-13.054-1.371v7.415l-4.422-3.832 4.422-3.832v.248zM33.879 58.791v-9.261h-7.146v9.261h-3.236l6.809 7.904 6.809-7.904h-3.236zm-5.779-7.89h4.412v7.89h-4.412v-7.89zm-1.615 9.261h7.642l-3.821 4.435-3.821-4.435zM53.25 27.144h-1.333v1.371h1.333v-1.371zM47.815 27.144h-1.367v1.371h1.367v-1.371zM50.55 27.144h-1.367v1.371h1.367v-1.371zM56.939 10.033h-1.367v1.371h1.367v-1.371zM59.64 10.033h-1.333v1.371h1.333v-1.371zM54.204 10.033h-1.367v1.371h1.367v-1.371zM54.944 20.62h1.661v1.666h1.367v-1.666h1.661v-1.371h-1.661v-1.666h-1.367v1.666h-1.661v1.371zM44.446 4.839h1.661v1.666h1.367v-1.666h1.661v-1.371h-1.661v-1.666h-1.367v1.666h-1.661v1.371zM49.066 61.968h-1.333v1.371h1.333v-1.371zM43.631 61.968h-1.367v1.371h1.367v-1.371zM46.366 61.968h-1.367v1.371h1.367v-1.371zM52.422 57.11h1.367v-1.666h1.661v-1.372h-1.661v-1.666h-1.367v1.666h-1.661v1.372h1.661v1.666zM15.147 61.968h-1.367v1.371h1.367v-1.371zM12.412 61.968h-1.333v1.371h1.333v-1.371zM17.881 61.968h-1.367v1.371h1.367v-1.371zM7.723 55.444h1.661v-1.372h-1.661v-1.666h-1.367v1.666h-1.661v1.372h1.661v1.666h1.367v-1.666zM7.723 27.144h-1.333v1.371h1.333v-1.371zM10.457 27.144h-1.367v1.371h1.367v-1.371zM13.192 27.144h-1.367v1.371h1.367v-1.371zM4.068 10.033h-1.367v1.371h1.367v-1.371zM1.333 10.033h-1.333v1.371h1.333v-1.371zM6.802 10.033h-1.367v1.371h1.367v-1.371zM1.666 19.248h-1.661v1.371h1.661v1.666h1.367v-1.666h1.661v-1.371h-1.661v-1.666h-1.367v1.666zM10.504 4.839h1.661v1.666h1.367v-1.666h1.661v-1.371h-1.661v-1.666h-1.367v1.666h-1.661v1.371z" />
  </svg>