<svg viewBox="0 0 131 127" xmlns="http://www.w3.org/2000/svg">
  <path
    d="M67.454 11.019h-2.714v2.578h2.714v-2.578zM67.454.272h-2.714v2.687h2.714v-2.687zM67.454 5.646h-2.714v2.687h2.714v-2.687zM44.204 13.778l-1.357-2.327-2.351 1.343 1.357 2.327 2.351-1.344zM46.865 18.339l-1.301-2.232-2.351 1.343 1.301 2.232 2.351-1.343zM37.783 8.143l1.357 2.327 2.351-1.344-1.357-2.327-2.351 1.344zM23.112 30.986l2.351 1.343 1.357-2.327-2.351-1.343-1.357 2.327zM18.412 28.3l2.35 1.343 1.357-2.327-2.35-1.343-1.357 2.327zM29.172 31.345l-1.357 2.327 2.255 1.288 1.357-2.327-2.255-1.289zM14.533 52.657h-2.714v2.687h2.714v-2.687zM25.28 52.657h-2.604v2.687h2.604v-2.687zM19.961 52.657h-2.714v2.687h2.714v-2.687zM24.471 79.338l2.351-1.343-1.357-2.327-2.351 1.343 1.357 2.327zM31.424 75.365l-1.357-2.327-2.255 1.288 1.357 2.327 2.255-1.288zM22.117 80.683l-1.357-2.327-2.351 1.343 1.357 2.327 2.351-1.343zM107.723 79.345l1.357-2.327-2.351-1.343-1.357 2.327 2.351 1.343zM104.376 74.332l-2.255-1.289-1.358 2.327 2.255 1.289 1.358-2.327zM112.424 82.032l1.357-2.327-2.35-1.343-1.358 2.327 2.351 1.343zM114.946 52.657h-2.714v2.687h2.714v-2.687zM120.375 52.657h-2.714v2.687h2.714v-2.687zM109.517 52.657h-2.604v2.687h2.604v-2.687zM111.433 29.64l2.35-1.343-1.357-2.327-2.351 1.343 1.358 2.327zM106.727 32.327l2.351-1.343-1.357-2.327-2.351 1.343 1.357 2.327zM102.121 34.966l2.255-1.289-1.357-2.327-2.255 1.289 1.357 2.327zM94.414 8.14l-2.351-1.343-1.357 2.327 2.351 1.343 1.357-2.327zM87.986 13.781l2.351 1.343 1.357-2.327-2.351-1.343-1.357 2.327zM85.327 18.339l2.351 1.343 1.302-2.232-2.351-1.343-1.302 2.232zM65.335 16.861c-16.871 1.027-30.359 14.396-31.373 31.099-.526 8.654 2.295 17.031 7.945 23.587 4.644 5.391 7.201 11.985 7.201 18.57v2.697h2.101v6.126h-3.096v2.687h3.096v5.571h-3.096v2.687h3.096v.991c0 1.591.243 3.127.68 4.58h-3.776v2.686h4.869c2.687 5.22 8.156 8.81 14.469 8.81 6.312 0 11.782-3.59 14.468-8.81h4.869v-2.686h-3.776c.437-1.453.68-2.989.68-4.58v-.991h3.096v-2.687h-3.096v-5.571h3.096v-2.687h-3.096v-6.127h2.107v-3.281c0-6.326 2.478-12.627 6.979-17.742 5.307-6.03 8.23-13.766 8.23-21.781 0-19.008-16.19-34.34-35.674-33.151zm-.152 47.255l-5.302-7.12h15.152l-5.302 7.12c-.172.231-.264.51-.264.797v25.215h-4.02v-25.215c0-.287-.093-.566-.265-.797zm15.796 37.512v5.571h-4.406v2.687h4.406v.991c0 1.61-.303 3.148-.832 4.58h-16.759v2.686h15.41c-2.413 3.68-6.593 6.124-11.346 6.124s-8.933-2.444-11.346-6.124h4.197v-2.686h-5.546c-.529-1.432-.832-2.97-.832-4.58v-.991h19.14v-2.687h-19.141v-5.571h4.503v-2.687h-4.503v-6.123h27.055v6.123h-19.467v2.687h19.467zm9.754-31.6c-4.932 5.604-7.647 12.531-7.647 19.506v.594h-10.904v-24.773l5.843-7.847c.853.458 1.814.742 2.851.742 3.327 0 6.034-2.679 6.034-5.972 0-3.294-2.706-5.972-6.034-5.972-3.327 0-6.034 2.679-6.034 5.972 0 .717.149 1.395.384 2.032h-15.541c.235-.637.384-1.316.384-2.032 0-3.294-2.706-5.972-6.034-5.972-3.327 0-6.034 2.679-6.034 5.972 0 3.294 2.706 5.972 6.034 5.972 1.038 0 2.001-.285 2.855-.744l5.844 7.849v24.773h-10.91v-.01c0-7.223-2.788-14.437-7.851-20.314-5.191-6.025-7.784-13.726-7.301-21.682.932-15.349 13.327-27.636 28.831-28.579 17.891-1.091 32.793 12.996 32.793 30.469 0 7.366-2.686 14.475-7.562 20.016zm-11.998-15.26c-.069-.078-.15-.143-.235-.202-.583-.592-.945-1.398-.945-2.288 0-1.812 1.489-3.286 3.319-3.286 1.83 0 3.319 1.474 3.319 3.286s-1.489 3.286-3.319 3.286c-.819 0-1.56-.306-2.14-.795zm-22.548-.011c-.581.495-1.328.806-2.154.806-1.83 0-3.319-1.474-3.319-3.286s1.489-3.286 3.319-3.286c1.83 0 3.319 1.474 3.319 3.286 0 .897-.367 1.71-.958 2.303l-.208.176zM60.653 22.739l.663 2.605c.728-.182 1.468-.331 2.201-.445l-.421-2.654c-.814.127-1.636.293-2.442.494zM55.303 24.671l1.184 2.418c.773-.371 1.571-.706 2.371-.994l-.93-2.524c-.886.32-1.769.69-2.624 1.101zM50.456 27.616l1.641 2.14c.683-.513 1.4-.998 2.129-1.442l-1.421-2.289c-.805.489-1.596 1.024-2.349 1.591zM46.283 31.436l2.028 1.787c.571-.636 1.18-1.25 1.808-1.825l-1.843-1.972c-.692.633-1.362 1.31-1.992 2.01zM42.936 35.984l2.339 1.362c.433-.729.91-1.448 1.417-2.136l-2.195-1.582c-.558.759-1.083 1.551-1.561 2.356zM76.742 80.488h-2.714v2.448h2.714v-2.448zM76.742 75.115h-2.714v2.687h2.714v-2.687zM76.742 69.741h-2.714v2.687h2.714v-2.687zM9.706 120.105h-2.714v2.687h2.714v-2.687zM15.135 120.105h-2.714v2.687h2.714v-2.687zM4.278 120.105h-2.714v2.687h2.714v-2.687zM38.852 91.223h-2.714v2.687h2.714v-2.687zM33.423 91.223h-2.714v2.687h2.714v-2.687zM27.995 91.223h-2.714v2.687h2.714v-2.687zM23.784 108.718h2.52v-2.686h-2.52v-2.494h-2.714v2.494h-2.52v2.686h2.52v2.494h2.714v-2.494zM130.192 120.473h-2.714v2.687h2.714v-2.687zM119.335 120.473h-2.714v2.687h2.714v-2.687zM124.764 120.473h-2.715v2.687h2.715v-2.687zM106.476 91.59h-2.714v2.687h2.714v-2.687zM101.047 91.59h-2.714v2.687h2.714v-2.687zM95.619 91.59h-2.714v2.687h2.714v-2.687zM110.686 111.579v-2.494h2.52v-2.686h-2.52v-2.494h-2.714v2.494h-2.519v2.686h2.519v2.494h2.714zM8.951 16.115h-2.714v2.687h2.714v-2.687zM3.522 16.115h-2.714v2.687h2.714v-2.687zM14.379 16.115h-2.714v2.687h2.714v-2.687zM29.349 3.745h-2.714v2.687h2.714v-2.687zM18.492 3.745h-2.714v2.687h2.714v-2.687zM23.921 3.745h-2.714v2.687h2.714v-2.687zM123.186 14.264h-2.714v2.687h2.714v-2.687zM117.757 14.264h-2.714v2.687h2.714v-2.687zM128.614 14.264h-2.714v2.687h2.714v-2.687zM113.644 1.894h-2.714v2.687h2.714v-2.687zM102.787 1.894h-2.714v2.687h2.714v-2.687zM108.215 1.894h-2.714v2.687h2.714v-2.687z" />
  </svg>