<svg viewBox="0 0 138 133" xmlns="http://www.w3.org/2000/svg">
  <path
    d="M23.272 77.324c6.565 0 12.444-2.692 16.65-7.51 1.557 15.147 14.491 27.004 30.166 27.004 14.932 0 27.521-10.816 29.911-25.134 4.093 3.666 9.237 5.653 14.767 5.653 11.211-.001 22.806-8.372 22.806-22.381 0-12.336-10.105-22.372-22.526-22.372-.513 0-1.029.017-1.545.053.655-7.807-1.96-15.672-7.318-21.828-5.798-6.662-14.193-10.483-23.032-10.483-12.084 0-23.076 7.201-27.874 18.085-3.271-1.767-6.922-2.694-10.657-2.694-10.405 0-19.463 7.03-21.981 16.878-12.28.194-22.21 10.15-22.21 22.361 0 6.428 2.535 12.253 7.136 16.401 4.208 3.792 9.932 5.967 15.707 5.967zm-.269-41.899c.23.002.46-.001.691.012l1.244.073.243-1.212c1.818-9.125 9.993-15.748 19.439-15.748 3.756 0 7.413 1.075 10.58 3.11l1.497.961.619-1.658c3.986-10.65 14.368-17.806 25.834-17.806 8.008 0 15.615 3.463 20.869 9.501 5.227 6.006 7.575 13.794 6.444 21.368l-.282 1.89 1.906-.281c.982-.145 1.976-.219 2.959-.219 10.845 0 19.667 8.766 19.667 19.539 0 12.236-10.142 19.548-19.948 19.548-5.706 0-10.946-2.44-14.757-6.87l-2.292-2.665-.221 3.496c-.901 14.311-12.941 25.52-27.408 25.52-15.144 0-27.465-12.221-27.465-27.243 0-.359.015-.732.029-1.091l.229-5.611-2.885 4.833c-3.648 6.112-9.745 9.617-16.724 9.617-5.073 0-10.098-1.906-13.785-5.23-2.829-2.55-6.201-7.102-6.201-14.305 0-10.77 8.845-19.531 19.717-19.531zM9.893 50.083l-2.673-1.001c-.367.964-.645 1.968-.824 2.984l2.815.488c.148-.842.378-1.673.682-2.471zM9.002 55.113l-2.857.029c.011 1.032.119 2.066.321 3.074l2.801-.552c-.167-.836-.257-1.694-.265-2.551zM11.191 62.403c-.463-.72-.862-1.489-1.187-2.284l-2.648 1.064c.391.955.871 1.878 1.427 2.743l2.408-1.523zM18.61 71.094l.745-2.734c-.83-.222-1.646-.524-2.425-.896l-1.242 2.55c.937.449 1.921.813 2.921 1.08zM12.572 45.715l-2.129-1.889c-.693.768-1.318 1.602-1.857 2.478l2.441 1.473c.446-.729.967-1.422 1.544-2.062zM16.659 42.597l-1.297-2.524c-.923.467-1.809 1.023-2.634 1.651l1.744 2.245c.685-.523 1.42-.985 2.188-1.372zM10.694 66.365c.712.754 1.494 1.444 2.326 2.052l1.696-2.279c-.692-.505-1.343-1.081-1.938-1.709l-2.084 1.936zM21.6 41.159l-.285-2.819c-1.037.103-2.065.301-3.058.591l.804 2.718c.824-.239 1.678-.404 2.539-.49zM86.174 6.174c-.999-.121-2.016-.183-3.023-.183v2.832c.891 0 1.793.055 2.677.162l.346-2.812zM97.375 10.471c-.826-.578-1.692-1.109-2.575-1.58l-1.353 2.495c.783.417 1.55.887 2.282 1.399l1.646-2.314zM92.046 7.633c-.942-.361-1.914-.667-2.892-.911l-.695 2.747c.864.215 1.723.486 2.554.806l1.032-2.642zM102.662 20.759l2.551-1.275c-.451-.886-.964-1.758-1.527-2.592l-2.374 1.574c.497.739.951 1.51 1.35 2.293zM101.852 14.502c-.661-.757-1.372-1.48-2.114-2.149l-1.922 2.097c.658.593 1.289 1.233 1.874 1.904l2.163-1.852zM104.466 25.747l2.787-.618c-.219-.974-.503-1.946-.844-2.887l-2.689.957c.301.831.552 1.688.746 2.548zM49.698 22.183c-.986-.314-2.012-.538-3.046-.666l-.354 2.81c.858.107 1.709.293 2.526.553l.873-2.697zM43.707 24.241l-.167-2.827c-1.038.06-2.076.217-3.082.466l.692 2.748c.834-.207 1.695-.337 2.557-.387zM34.49 28.423l-2.045-1.976c-.73.741-1.39 1.549-1.961 2.4l2.377 1.571c.476-.707 1.024-1.378 1.629-1.995zM38.707 25.478l-1.189-2.575c-.94.427-1.85.945-2.702 1.54l1.646 2.315c.709-.495 1.463-.925 2.245-1.28zM48.392 54.383c.787 0 1.56-.113 2.299-.331v7.639c0 .782.639 1.416 1.429 1.416h15.314c.79 0 1.429-.634 1.429-1.416 0-.382-.152-.728-.399-.982-.515-.812-.785-1.745-.785-2.714 0-2.819 2.313-5.113 5.156-5.113 2.845 0 5.158 2.294 5.158 5.113 0 1.041-.313 2.041-.904 2.893-.301.434-.335.996-.088 1.463.247.465.734.757 1.264.757h15.3c.79 0 1.429-.634 1.429-1.416v-9.871c0-.526-.294-1.009-.765-1.254-.467-.245-1.037-.211-1.475.088-.859.587-1.868.897-2.919.897-2.845 0-5.158-2.293-5.158-5.112s2.313-5.112 5.158-5.112c1.053 0 2.059.313 2.907.904.438.305 1.01.342 1.48.098.473-.244.77-.728.77-1.257v-8.696c0-.782-.639-1.416-1.429-1.416h-13.05c.222-.733.335-1.499.335-2.28 0-4.381-3.595-7.945-8.015-7.945-4.418 0-8.013 3.564-8.013 7.945 0 .781.113 1.547.335 2.28h-13.036c-.79 0-1.428.634-1.428 1.416v6.451c-.737-.22-1.51-.333-2.299-.333-4.42 0-8.015 3.564-8.015 7.945s3.595 7.945 8.015 7.945zm0-13.057c1.053 0 2.059.313 2.906.903.437.304 1.006.342 1.48.099.473-.244.77-.729.77-1.257v-7.28h13.857c.53 0 1.018-.292 1.265-.758.246-.465.212-1.029-.089-1.462-.592-.851-.904-1.851-.904-2.893 0-2.819 2.313-5.112 5.156-5.112 2.845 0 5.158 2.293 5.158 5.112 0 1.041-.313 2.041-.904 2.893-.301.433-.335.997-.089 1.462.247.466.735.758 1.265.758h13.871v5.036c-.738-.221-1.511-.333-2.301-.333-4.42 0-8.015 3.564-8.015 7.945s3.595 7.945 8.015 7.945c.788 0 1.561-.113 2.301-.332v6.224h-11.621c.222-.733.335-1.499.335-2.28 0-4.381-3.595-7.945-8.015-7.945-4.418 0-8.013 3.564-8.013 7.945 0 .781.113 1.547.335 2.28h-11.607v-8.455c0-.526-.294-1.01-.765-1.254-.472-.245-1.038-.211-1.476.089-.857.586-1.865.896-2.916.896-2.845 0-5.158-2.293-5.158-5.112s2.313-5.112 5.158-5.112zM29.629 123.051c0-4.174-3.426-7.571-7.638-7.571-4.21 0-7.637 3.397-7.637 7.571 0 4.175 3.426 7.572 7.637 7.572 4.212 0 7.638-3.397 7.638-7.572zm-7.638 4.739c-2.635 0-4.779-2.126-4.779-4.739s2.144-4.739 4.779-4.739c2.637 0 4.781 2.126 4.781 4.739s-2.144 4.739-4.781 4.739zM39.123 92.941c-5.862 0-10.632 4.728-10.632 10.539 0 5.812 4.77 10.54 10.632 10.54s10.631-4.728 10.631-10.54c0-5.811-4.768-10.539-10.631-10.539zm0 18.247c-4.287 0-7.775-3.458-7.775-7.708 0-4.249 3.488-7.707 7.775-7.707 4.286 0 7.773 3.458 7.773 7.707 0 4.25-3.488 7.708-7.773 7.708zM71.865 111.188h-2.857v2.832h2.857v-2.832zM77.578 111.188h-2.857v2.832h2.857v-2.832zM66.15 111.188h-2.857v2.832h2.857v-2.832zM98.789 127.791h-2.857v2.832h2.857v-2.832zM110.218 127.791h-2.857v2.832h2.857v-2.832zM104.504 127.791h-2.858v2.832h2.858v-2.832zM133.67 98.482h-2.858v2.832h2.858v-2.832zM127.955 98.482h-2.857v2.832h2.857v-2.832zM122.241 98.482h-2.857v2.832h2.857v-2.832zM18.089 5.991h-2.857v2.832h2.857v-2.832zM23.803 5.991h-2.857v2.832h2.857v-2.832zM29.518 5.991h-2.857v2.832h2.857v-2.832zM127.51 10.012h-2.857v2.833h2.857v-2.833zM133.224 10.012h-2.857v2.833h2.857v-2.833zM121.796 10.012h-2.857v2.833h2.857v-2.833zM99.814 107.137h3.049v-2.832h-3.049v-3.023h-2.857v3.023h-3.05v2.832h3.05v3.024h2.857v-3.024zM133.738 122.831h-3.05v-3.023h-2.857v3.023h-3.05v2.833h3.05v3.023h2.857v-3.023h3.05v-2.833zM63.495 132.132v-3.023h3.05v-2.832h-3.05v-3.024h-2.857v3.024h-3.05v2.832h3.05v3.023h2.857zM13.479 22.613v-3.023h3.048v-2.832h-3.048v-3.023h-2.857v3.023h-3.05v2.832h3.05v3.023h2.857zM131.665 28.196v-3.023h3.049v-2.832h-3.049v-3.023h-2.858v3.023h-3.049v2.832h3.049v3.023h2.858zM5.553 83.511h-2.857v2.832h2.857v-2.832zM11.267 83.511h-2.857v2.832h2.857v-2.832zM16.982 83.511h-2.857v2.832h2.857v-2.832zM12.563 95.84h-3.05v2.833h3.05v3.023h2.857v-3.023h3.05v-2.833h-3.05v-3.023h-2.857v3.023z" />
  </svg>