<svg viewBox="0 0 23 18" xmlns="http://www.w3.org/2000/svg">
  <path
    d="M22.0297 8.74126C22.0187 8.47082 21.904 8.1582 21.7128 7.96103L14.6928 0.773443C14.2829 0.302357 13.4943 0.3118 13.0335 0.736292C12.5727 1.16078 12.5349 1.91252 12.9988 2.33391L18.1419 7.60638H2.13973C1.49357 7.60638 0.969727 8.1145 0.969727 8.74126C0.969727 9.36806 1.49357 9.87615 2.13973 9.87615H18.1419L12.9988 15.1486C12.5349 15.57 12.5729 16.325 13.0339 16.7494C13.4947 17.1739 14.2945 17.1758 14.693 16.7091L21.713 9.52149C21.9266 9.3014 22.0268 9.04469 22.0299 8.74126H22.0297Z" />
</svg>