<svg viewBox="0 0 14 14" xmlns="http://www.w3.org/2000/svg">
  <path
    d="M7.0002 0.723877C3.52078 0.723877 0.700195 3.62504 0.700195 7.20388C0.700195 10.7827 3.52078 13.6839 7.0002 13.6839C10.4796 13.6839 13.3002 10.7827 13.3002 7.20388C13.3002 3.62504 10.4796 0.723877 7.0002 0.723877ZM5.51536 8.73128C6.33422 9.57354 7.66646 9.57354 8.48532 8.73128L9.47512 9.74951C8.7929 10.4512 7.89648 10.8021 7.0002 10.8021C6.10392 10.8021 5.2075 10.4512 4.52528 9.74936C3.1607 8.34565 3.1607 6.06181 4.52514 4.65824C5.88986 3.25453 8.11054 3.25453 9.47498 4.65824L8.48518 5.67647C7.66618 4.83421 6.33407 4.83421 5.51508 5.67647C4.6965 6.51872 4.6965 7.88903 5.51536 8.73128Z" />
</svg>