<?xml version="1.0" encoding="utf-8"?><svg xmlns="http://www.w3.org/2000/svg" xmlns:xlink="http://www.w3.org/1999/xlink"><symbol viewBox="0 0 34 39" id="google-hangouts-circle" xmlns="http://www.w3.org/2000/svg"><circle cx="17" cy="17" r="16" fill="#fff"/><path d="M17 .817C8.04.817.795 8.06.795 17.02S8.04 33.225 17 33.225h.953v5.72s15.251-7.626 15.251-21.924C33.204 8.06 25.96.817 17 .817zm-.953 17.157c0 1.716-1.907 3.813-1.907 3.813h-1.716s1.907-1.525 1.907-3.813h-4.004v-5.72h5.72v5.72zm7.625 0c0 1.716-1.906 3.813-1.906 3.813H20.05s1.906-1.525 1.906-3.813h-4.003v-5.72h5.719v5.72z" fill="inherit"/></symbol><symbol viewBox="0 0 33 34" id="mail-circle" xmlns="http://www.w3.org/2000/svg"><circle cx="16.429" cy="17.059" r="16.424" fill="inherit"/><path d="M9.038 11.457c-.25 0-.478.074-.674.194l7.497 6.2a.88.88 0 001.148 0l7.483-6.2a1.276 1.276 0 00-.673-.194H9.038zm-1.195.833a1.213 1.213 0 00-.072.406v8.26c0 .248.076.477.204.67l5.365-4.78-5.497-4.556zm17.17 0l-5.483 4.549 5.352 4.788a1.21 1.21 0 00.204-.672v-8.259c0-.143-.027-.278-.072-.406zm-6.13 5.09l-1.333 1.104a1.761 1.761 0 01-2.237 0l-1.326-1.097-5.326 4.75c.12.035.245.057.377.057h14.781c.132 0 .257-.022.377-.058l-5.313-4.755z" fill="#fff"/></symbol><symbol viewBox="0 0 29 29" id="phone-circle" xmlns="http://www.w3.org/2000/svg"><path d="M14.5.72C6.902.72.725 6.854.725 14.4c0 7.545 6.177 13.68 13.775 13.68 7.598 0 13.775-6.135 13.775-13.68C28.275 6.854 22.098.72 14.5.72zm7.57 18.748c-.262.634-.726 1.268-1.016 1.556-1.653 1.641-6.09.172-9.744-3.456-3.654-3.63-5.133-8.007-3.48-9.677.29-.288.957-.749 1.566-1.008a1.135 1.135 0 011.334.346l1.827 2.304c.377.46.32 1.152-.145 1.555-.464.403-.783.69-.87.777-.696.691.32 2.16 1.856 3.687 1.537 1.526 2.987 2.563 3.712 1.843.087-.087.377-.403.783-.864a1.14 1.14 0 011.566-.144l2.32 1.814c.377.23.493.778.29 1.267z"/></symbol><symbol viewBox="0 0 33 33" id="shine-square" xmlns="http://www.w3.org/2000/svg"><path d="M3.5 3L17 1l13.5 2L33 17l-3 14-13 2-13.5-2L1 17 3.5 3z" fill="#fff"/><path d="M9.73 1.184C6.76 1.48 4.47 2.224 3.408 3.22 2.665 3.9 1.9 5.554 1.54 7.167c-.191.785-.382 3.161-.446 5.474l-.127 4.094h.615c1.528 0 6.662-.445 7.723-.657 3.67-.764 6.026-3.12 6.768-6.768.191-.998.637-6.28.658-7.808 0-.467-.021-.467-3.12-.425-1.739 0-3.479.064-3.882.107zM17.156 1.587c0 1.485.446 6.662.658 7.723.721 3.649 3.098 6.004 6.768 6.768 1.06.212 6.195.657 7.723.657h.615l-.127-4.094c-.212-6.726-.997-8.933-3.628-10.27-1.634-.827-3.522-1.124-7.914-1.272L17.156.97v.616zM1.095 21.233c.149 4.413.446 6.302 1.273 7.935 1.337 2.631 3.564 3.416 10.29 3.628l4.074.127v-.615c0-1.527-.446-6.662-.658-7.723-.764-3.67-3.119-6.046-6.768-6.768-1.06-.212-6.238-.657-7.723-.657H.968l.127 4.073zM28.21 17.393c-4.243.297-6.238.933-7.956 2.546-1.103.997-2.08 2.885-2.44 4.646-.212 1.061-.658 6.238-.658 7.723v.615l4.095-.127c6.705-.212 8.932-.997 10.269-3.628.827-1.633 1.125-3.522 1.273-7.935l.127-4.073-1.145.02c-.637.022-2.228.128-3.565.213z" fill="inheirt"/></symbol><symbol viewBox="0 0 33 34" id="trading-view-circle" xmlns="http://www.w3.org/2000/svg"><circle cx="16.424" cy="17.059" r="16.424" fill="inherit"/><path d="M14.256 10.004c-3.502 0-5.951 2.792-5.636 5.55-2.062.36-3.62 1.978-3.62 3.915 0 2.2 2.01 3.985 4.488 3.985h13.744c2.852 0 4.768-1.661 4.768-3.736 0-1.735-1.376-3.44-3.366-3.736 0-2.99-3.085-4.234-5.33-3.238-.84-1.495-2.65-2.74-5.048-2.74z" fill="#fff"/><path fill="inherit" d="M5.152 20.957l7.13-5.47.927 1.208-7.13 5.47zM17.642 19.922l6.135-6.567 1.113 1.04-6.135 6.567z"/><path fill="inherit" d="M18.819 21.548l-6.355-6.354 1.077-1.077 6.355 6.355z"/><circle cx="13.453" cy="15.259" r="1.752" fill="inherit"/><circle cx="18.785" cy="19.828" r="1.752" fill="inherit"/></symbol><symbol viewBox="0 0 34 34" id="yandex-messenger-circle" xmlns="http://www.w3.org/2000/svg"><circle cx="17.003" cy="16.947" r="16.424" fill="inherit"/><path d="M26.287 18.057a.777.777 0 01-.372.427l-13.865 7.43a.846.846 0 01-.812-.007.8.8 0 01-.296-.286.755.755 0 01-.108-.388v-2.796l-1.05.297a.852.852 0 01-.468-.001.82.82 0 01-.39-.247.752.752 0 01-.103-.852l2.01-3.832-2.011-3.832a.753.753 0 01.103-.852.821.821 0 01.391-.247.853.853 0 01.468 0l1.05.297v-2.796c0-.137.037-.27.108-.389a.8.8 0 01.296-.286.847.847 0 01.812-.007l13.865 7.43a.778.778 0 01.372.427c.06.165.06.345 0 .51z" fill="inherit"/><path d="M26.283 18.048a.717.717 0 01-.367.377l-13.684 6.573a.914.914 0 01-.801-.006.758.758 0 01-.292-.253.616.616 0 01-.107-.344v-2.473l15.25-3.874z" fill="#fff"/><path d="M10.837 10.547a.805.805 0 011.182-.734l13.876 7.316c.175.091.31.245.378.43L10.91 13.433l-.074-2.885zM26.287 18.044l-16.503 4.42a.9.9 0 01-.468 0 .828.828 0 01-.39-.234.678.678 0 01-.103-.806l2.01-3.622h15.5a.685.685 0 01-.046.242z" fill="#dcdcdc"/><path d="M10.834 17.802l-2.012-3.623a.677.677 0 01.103-.806.827.827 0 01.391-.233.9.9 0 01.468 0l16.503 4.42c.03.078.045.16.045.242H10.834z" fill="#fff"/></symbol></svg>