<svg viewBox="0 0 30 30" xmlns="http://www.w3.org/2000/svg">
  <path d="M25.591 4.409c-5.839-5.839-15.343-5.839-21.182 0-5.839 5.839-5.839 15.343 0 21.182 2.923 2.923 6.754 4.378 10.591 4.378 3.838 0 7.668-1.462 10.591-4.378 5.839-5.839 5.839-15.343 0-21.182zm-1.022 20.167c-5.278 5.278-13.867 5.278-19.145 0-5.278-5.278-5.278-13.867 0-19.145 5.278-5.278 13.867-5.278 19.145 0 5.285 5.278 5.285 13.86 0 19.145zM20.544 9.456c-.281-.281-.734-.281-1.015 0l-4.529 4.529-4.529-4.529c-.281-.281-.734-.281-1.015 0-.281.281-.281.734 0 1.015l4.529 4.529-4.529 4.529c-.281.281-.281.734 0 1.015.144.144.324.209.511.209s.367-.072.511-.209l4.529-4.529 4.529 4.529c.144.144.324.209.511.209s.367-.072.511-.209c.281-.281.281-.734 0-1.015l-4.543-4.529 4.529-4.529c.281-.281.281-.734 0-1.015z" />
</svg>