<svg viewBox="0 0 61 64" xmlns="http://www.w3.org/2000/svg">
  <path
    d="M58.522 35.193l-1.28-.124c-.04.425-.09.847-.149 1.267l1.273.184c.062-.439.114-.882.155-1.327zM53.822 45.913l1.111.656c.221-.386.432-.777.634-1.173l-1.142-.6c-.192.377-.393.75-.603 1.117zM54.976 43.65l1.169.545c.183-.404.356-.814.52-1.228l-1.193-.487c-.156.395-.322.786-.496 1.171zM54.248 47.709l-1.081-.708c-.227.358-.462.709-.705 1.054l1.046.76c.255-.363.502-.732.74-1.107zM58.646 32.522h-1.286c0 .428-.01.853-.03 1.276l1.284.061c.021-.443.031-.889.031-1.337zM57.528 40.439l-1.233-.368c-.119.409-.247.813-.384 1.213l1.214.43c.144-.42.279-.845.402-1.275zM58.149 37.84l-1.263-.246c-.078.419-.168.834-.266 1.245l1.249.309c.104-.432.197-.868.28-1.308zM8.829 18.039l-1.08-.709c-.238.374-.468.754-.688 1.14l1.112.656c.21-.368.429-.731.655-1.087zM5.851 20.845l1.169.545c.175-.387.358-.769.551-1.145l-1.141-.601c-.202.395-.395.796-.578 1.202zM4.87 23.325l1.214.429c.138-.402.285-.801.441-1.194l-1.193-.487c-.163.413-.318.83-.462 1.252zM5.107 27.447l-1.262-.249c-.084.437-.156.877-.219 1.321l1.273.185c.059-.422.128-.841.208-1.256zM4.751 29.971l-1.279-.125c-.042.442-.073.887-.094 1.335l1.284.061c.019-.426.049-.85.089-1.271zM5.7 24.97l-1.233-.37c-.124.426-.238.857-.342 1.292l1.249.309c.099-.414.208-.824.326-1.231zM34.161 60.428c.438-.051.873-.112 1.304-.184l-.207-1.289c-.411.068-.825.127-1.242.175l.146 1.298zM31.536 60.606c.441-.009.879-.028 1.315-.057l-.085-1.304c-.416.028-.834.047-1.254.055l.024 1.306zM30.221 60.6l.035-1.305c-.42-.012-.838-.034-1.254-.065l-.097 1.302c.436.033.874.056 1.315.069zM36.758 59.997c.431-.093.858-.196 1.281-.31l-.328-1.263c-.403.108-.81.206-1.22.295l.266 1.277zM55.468 32.522c0-7.172-3.009-13.64-7.806-18.181l1.39-1.937 4.769 3.53.371-.572c2.681-4.14 1.694-9.668-2.245-12.584-3.963-2.933-9.445-2.147-12.48 1.686l-.422.534 4.885 3.616-1.42 1.981c-2.21-1.202-4.623-2.066-7.171-2.531v-2.646c0-2.426-1.935-4.417-4.342-4.417-2.398 0-4.348 1.982-4.348 4.417v2.647c-2.599.476-5.06 1.362-7.306 2.603l-1.476-2.052 4.886-3.617-.422-.534c-3.04-3.838-8.522-4.615-12.48-1.686-3.939 2.916-4.926 8.444-2.245 12.584l.371.572 4.767-3.528 1.471 2.048c-4.729 4.536-7.69 10.956-7.69 18.069 0 7.526 3.313 14.276 8.531 18.839l-3.35 5.896c-1.037 1.829-.421 4.175 1.374 5.231 1.799 1.051 4.109.429 5.149-1.403l3.225-5.67c2.934 1.267 6.158 1.968 9.541 1.968 3.384 0 6.609-.702 9.543-1.969l3.226 5.67c1.04 1.835 3.342 2.461 5.142 1.404 1.8-1.053 2.42-3.4 1.382-5.232l-3.351-5.895c5.217-4.563 8.531-11.313 8.531-18.838zm-4.279-28.689c3.2 2.369 4.132 6.745 2.275 10.222l-12.55-9.289c2.7-2.871 7.091-3.289 10.275-.932zm-6.223 5.551l3.045 2.252-1.316 1.835c-.961-.819-1.983-1.566-3.06-2.229l1.331-1.858zm-17.032-3.969c0-1.715 1.374-3.111 3.062-3.111 1.683 0 3.056 1.395 3.056 3.111v2.447c-1.002-.128-2.021-.201-3.057-.201-1.038 0-2.058.073-3.062.202v-2.448zm-19.601 8.639c-1.856-3.477-.925-7.853 2.275-10.222 3.184-2.357 7.575-1.938 10.275.932l-8.898 6.584v.001l-3.653 2.704zm5.45-2.418l3.046-2.253 1.396 1.942c-1.074.671-2.092 1.425-3.048 2.251l-1.394-1.94zm3.333 48.795c-.684 1.205-2.207 1.618-3.393.924-1.182-.695-1.587-2.242-.903-3.447l3.245-5.711c1.308 1.027 2.718 1.924 4.216 2.669l-3.165 5.565zm32.059-2.524c.684 1.207.276 2.754-.911 3.448-1.184.696-2.699.286-3.385-.925l-3.165-5.565c1.498-.744 2.908-1.642 4.215-2.669l3.246 5.711zm-18.178-1.832c-12.784 0-23.186-10.566-23.186-23.554 0-12.988 10.401-23.554 23.186-23.554s23.186 10.566 23.186 23.554c0 12.988-10.401 23.554-23.186 23.554zM30.997 11.868c-11.211 0-20.332 9.265-20.332 20.654s9.121 20.655 20.332 20.655c11.21 0 20.331-9.266 20.331-20.655 0-11.389-9.121-20.654-20.331-20.654zm10.069 37.066l-1.415-2.489-1.114.653 1.417 2.493c-2.494 1.356-5.318 2.162-8.315 2.263v-2.878h-1.286v2.878c-2.997-.102-5.821-.907-8.315-2.264l1.417-2.492-1.114-.653-1.415 2.489c-2.461-1.564-4.546-3.682-6.085-6.182l2.45-1.437-.643-1.131-2.453 1.439c-1.335-2.533-2.128-5.402-2.228-8.447h2.833v-1.306h-2.833c.1-3.045.893-5.913 2.228-8.447l2.453 1.439.643-1.131-2.45-1.437c1.54-2.5 3.625-4.618 6.086-6.182l1.414 2.489 1.114-.653-1.416-2.492c2.494-1.356 5.318-2.162 8.315-2.263v2.878h1.286v-2.878c2.997.102 5.821.907 8.315 2.263l-1.417 2.492 1.114.653 1.415-2.489c2.461 1.564 4.546 3.682 6.086 6.182l-2.45 1.437.643 1.131 2.453-1.439c1.335 2.534 2.128 5.402 2.228 8.447h-2.833v1.306h2.833c-.1 3.045-.893 5.913-2.228 8.447l-2.454-1.439-.643 1.131 2.45 1.437c-1.54 2.5-3.625 4.618-6.086 6.183zM26.754 34.218l-1.197.478c.176.454.409.887.69 1.285l1.045-.762c-.22-.311-.401-.648-.538-1.001zM27.225 37.056c.368.316.773.586 1.205.801l.566-1.172c-.337-.168-.653-.379-.941-.626l-.83.997zM35.684 35.324l.002 1.705-2.394-2.432c.485-.554.79-1.276.79-2.074 0-1.504-1.049-2.762-2.442-3.064v-6.759l1.186 1.205.909-.924-2.741-2.785-2.735 2.785.91.922 1.186-1.207v6.763c-1.393.302-2.443 1.56-2.443 3.064 0 1.728 1.384 3.134 3.086 3.134.446 0 .868-.101 1.251-.275l2.528 2.569h-1.678v1.306h3.877l-.004-3.934-1.286.001zm-6.488-2.801c0-1.008.807-1.828 1.8-1.828.992 0 1.799.82 1.799 1.828s-.807 1.828-1.799 1.828c-.993 0-1.8-.82-1.8-1.828zM5.567 6.39l-1.197-.478c-.165.427-.308.868-.424 1.311l1.243.335c.103-.395.23-.789.377-1.169zM5.655 3.481c-.261.379-.5.775-.713 1.177l1.133.617c.189-.357.402-.709.633-1.046l-1.053-.748zM3.674 8.579c-.064.457-.102.919-.114 1.375l1.286.034c.01-.406.045-.819.102-1.226l-1.273-.184zM56.781 8.336c.074.404.125.814.151 1.218l1.283-.086c-.029-.456-.087-.917-.17-1.371l-1.264.239zM55.514 4.899l1.106-.665c-.232-.398-.487-.783-.76-1.146l-1.022.793c.242.322.47.665.676 1.019zM57.242 5.463l-1.175.529c.163.375.306.762.424 1.15l1.228-.385c-.133-.437-.293-.872-.477-1.294zM10.207 56.596h-1.286v1.306h1.286v-1.306zM7.635 56.596h-1.286v1.306h1.286v-1.306zM5.064 56.596h-1.286v1.306h1.286v-1.306zM1.746 41.87h-1.286v1.306h1.286v-1.306zM4.317 41.87h-1.286v1.306h1.286v-1.306zM6.889 41.87h-1.286v1.306h1.286v-1.306zM5.818 48.063h-1.286v1.577h-1.552v1.306h1.552v1.577h1.286v-1.577h1.553v-1.306h-1.553v-1.577zM60.171 59.119h-1.286v1.306h1.286v-1.306zM57.599 59.119h-1.286v1.306h1.286v-1.306zM55.028 59.119h-1.286v1.306h1.286v-1.306zM57.968 18.515h-1.286v1.306h1.286v-1.306zM60.539 18.515h-1.286v1.306h1.286v-1.306zM55.397 18.515h-1.286v1.306h1.286v-1.306zM55.782 53.469h1.553v-1.306h-1.553v-1.577h-1.286v1.577h-1.552v1.306h1.552v1.577h1.286v-1.577z" />
</svg>