<svg viewBox="0 0 141 136" xmlns="http://www.w3.org/2000/svg">
  <path
    d="M97.774 112.013h-2.837v2.83h2.837v-2.83zM97.774 117.671h-2.837v2.829h2.837v-2.829zM97.774 123.33h-2.837v2.816h2.837v-2.816zM68.651 123.33h-2.921v2.816h2.921v-2.816zM74.492 123.33h-2.921v2.816h2.921v-2.816zM86.175 123.33h-2.921v2.816h2.921v-2.816zM80.332 123.33h-2.92v2.816h2.92v-2.816zM92.016 123.33h-2.921v2.816h2.921v-2.816zM62.809 123.33h-2.921v2.816h2.921v-2.816zM56.967 123.33h-2.92v2.816h2.92v-2.816zM27.76 123.33h-2.921v2.816h2.921v-2.816zM12.918 123.33h-2.92v2.816h2.92v-2.816zM33.601 123.33h-2.921v2.816h2.921v-2.816zM51.126 123.33h-2.921v2.816h2.921v-2.816zM45.285 123.33h-2.921v2.816h2.921v-2.816zM39.442 123.33h-2.92v2.816h2.92v-2.816zM7.078 123.33h-2.837v2.816h2.837v-2.816zM7.078 117.742h-2.837v2.794h2.837v-2.794zM7.078 89.806h-2.837v2.793h2.837v-2.793zM7.078 78.63h-2.837v2.794h2.837v-2.794zM7.078 112.155h-2.837v2.794h2.837v-2.794zM7.078 106.567h-2.837v2.794h2.837v-2.794zM7.078 95.393h-2.837v2.794h2.837v-2.794zM7.078 100.979h-2.837v2.795h2.837v-2.795zM7.078 67.456h-2.837v2.794h2.837v-2.794zM7.078 61.868h-2.837v2.794h2.837v-2.794zM7.078 33.931h-2.837v2.794h2.837v-2.794zM7.078 50.693h-2.837v2.794h2.837v-2.794zM7.078 39.519h-2.837v2.794h2.837v-2.794zM7.078 56.281h-2.837v2.794h2.837v-2.794zM7.078 84.218h-2.837v2.794h2.837v-2.794zM7.078 73.043h-2.837v2.794h2.837v-2.794zM7.078 45.105h-2.837v2.794h2.837v-2.794zM7.078 28.321h-2.837v2.816h2.837v-2.816zM11.499 28.321h-1.418v2.816h1.418v-2.816zM91.933 28.321h-1.418v2.816h1.418v-2.816zM97.774 28.321h-2.837v2.816h2.837v-2.816zM97.774 39.128h-2.837v2.664h2.837v-2.664zM97.774 44.455h-2.837v2.664h2.837v-2.664zM97.774 33.801h-2.837v2.664h2.837v-2.664zM55.895 21.628c4.075 0 7.391-3.292 7.391-7.338s-3.316-7.338-7.391-7.338-7.391 3.291-7.391 7.338c0 4.046 3.316 7.338 7.391 7.338zm0-11.86c2.511 0 4.554 2.028 4.554 4.521 0 2.494-2.043 4.522-4.554 4.522s-4.554-2.028-4.554-4.522c0-2.493 2.043-4.521 4.554-4.521zM42.667 39.254h-19.58v19.438h19.58v-19.438zm-2.837 16.622h-13.907v-13.806h13.907v13.806zM86.509 40.162h-6.196v2.816h6.196v-2.816zM75.866 40.162h-26.378v2.816h26.378v-2.816zM75.727 47.565h-26.24v2.816h26.24v-2.816zM66.375 54.967h-16.887v2.816h16.887v-2.816zM42.667 68.689h-19.58v19.438h19.58v-19.438zm-2.837 16.622h-13.907v-13.806h13.907v13.806zM42.667 98.124h-19.58v19.438h19.58v-19.438zm-2.837 16.621h-13.907v-13.805h13.907v13.805zM66.548 99.032h-17.056v2.816h17.056v-2.816zM74.32 106.434h-24.833v2.816h24.833v-2.816zM67.782 113.837h-18.295v2.816h18.295v-2.816zM124.834 98.546c3.554-5.86 5.396-12.596 5.324-19.479l-2.837.029c.067 6.361-1.634 12.584-4.917 17.998l2.43 1.452zM120.183 99.346l-3.193 2.576-1.817-2.222c4.379-4.71 7.131-10.648 7.806-17.138.827-7.944-1.511-15.732-6.583-21.93-2.812-3.434-6.292-6.146-10.178-8.026v-26.803c0-3.234-2.644-5.865-5.894-5.865h-19.649v-7.685h-11.731c-.787-6.664-6.548-11.876-13.444-11.876-6.89 0-12.644 5.212-13.43 11.876h-11.729v7.685h-19.651c-3.249 0-5.894 2.631-5.894 5.865v102.861c0 3.234 2.644 5.865 5.894 5.865h89.634c3.25 0 5.894-2.631 5.894-5.865v-22.331c.754-.365 1.491-.76 2.213-1.186l1.815 2.216-3.197 2.579 18.426 22.513c2.959 3.614 8.289 4.136 11.904 1.221 3.628-2.928 4.181-8.214 1.232-11.818l-18.428-22.512zm-5.989-36.937c4.595 5.614 6.713 12.668 5.964 19.863-.749 7.195-4.276 13.671-9.932 18.233-3.584 2.891-7.805 4.785-12.259 5.604-9.789 1.763-19.68-1.737-26.11-9.547l-.131-.17c-3.914-4.859-5.981-10.83-5.963-16.957l.002-.264c.105-8.318 3.968-15.79 10.057-20.701l.145-.107c5.796-4.6 13.231-6.583 20.196-5.777l.164.023c7.029.848 13.401 4.342 17.868 9.8zm-81.017-47.339h11.62l.018-1.39c.075-5.782 4.867-10.486 10.685-10.486 5.824 0 10.624 4.704 10.699 10.486l.018 1.39h11.621v13.112h-44.661v-13.112zm70.204 92.495v21.099c0 1.681-1.371 3.049-3.057 3.049h-89.634c-1.686 0-3.057-1.368-3.057-3.049v-102.861c0-1.681 1.371-3.049 3.057-3.049h19.651v8.243h50.334v-8.243h19.649c1.686 0 3.057 1.368 3.057 3.049v25.606c-3.607-1.316-6.739-1.587-6.944-1.627-8.234-.924-16.346 1.661-22.308 6.432l-.1.073c-4.087 3.294-7.507 7.878-9.403 13.308h-15.135v2.816h14.277c-.091.367-.161.737-.237 1.107l-.023.108c-.227 1.12-.389 2.245-.481 3.374h-13.537v2.816h13.434c.015 1.54.144 3.075.398 4.589h-13.832v2.816h14.452c1.094 4.058 3.063 7.826 5.578 10.945l.131.178c6.8 8.306 17.746 12.48 28.57 10.59 1.652-.283 3.691-.833 5.159-1.368zm7.426-3.983c.405-.294.818-.577 1.209-.893.395-.318.752-.668 1.127-1.003l1.647 2.011-2.343 1.89-1.64-2.005zm24.783 27.908c-2.421 1.953-5.961 1.575-7.912-.812l-16.64-20.326.996-.804.001.002 6.745-5.442-.001-.001.991-.799 16.638 20.327c1.961 2.395 1.595 5.907-.818 7.855zM68.18 77.699l-.956.985.965.976c.453.46 11.272 11.262 24.874 11.262h.112c13.65-.061 24.431-11.016 24.884-11.482l.955-.985-.965-.976c-.453-.46-11.272-11.262-24.986-11.262-13.65.06-24.431 11.015-24.884 11.482zm15.029-6.567c-1.592 2.086-2.544 4.679-2.532 7.493.013 2.818.994 5.41 2.615 7.486-5.66-2.23-10.089-5.747-12.019-7.445 1.909-1.711 6.288-5.254 11.936-7.533zm9.91 17.59v-.615c-5.273 0-9.582-4.26-9.606-9.495-.023-5.162 4.114-9.387 9.316-9.563l.317-.014c5.261.014 9.556 4.267 9.579 9.493.024 5.258-4.267 9.556-9.564 9.579l-.043.615zm9.896-2.693c1.602-2.09 2.56-4.69 2.548-7.513-.013-2.819-.995-5.412-2.622-7.489 5.664 2.23 10.096 5.749 12.027 7.448-1.914 1.717-6.307 5.275-11.953 7.554zM93.099 73.938c-1.247.005-2.417.492-3.294 1.371-.878.879-1.357 2.044-1.352 3.281.012 2.543 2.104 4.611 4.665 4.611h.021c1.247-.005 2.417-.492 3.294-1.371.878-.879 1.357-2.044 1.352-3.281-.012-2.543-2.104-4.611-4.686-4.611zm1.32 5.91c-.345.344-.803.536-1.292.538l-.008 1.408v-1.408c-1.004 0-1.824-.811-1.828-1.808-.003-.485.186-.942.529-1.286.345-.344.803-.535 1.301-.537 1.004 0 1.824.811 1.828 1.808.003.485-.185.941-.529 1.285zM113.254 28.39h-2.837v2.816h2.837v-2.816zM113.254 34.022h-2.837v2.816h2.837v-2.816zM113.254 39.655h-2.837v2.816h2.837v-2.816zM124.178 120.166l1.779 2.193 2.21-1.766-1.779-2.193-2.21 1.766zM122.821 114.02l-2.208 1.767 1.78 2.192 2.208-1.767-1.78-2.192zM3.052 12.483h-2.837v2.816h2.837v-2.816zM8.725 12.483h-2.837v2.816h2.837v-2.816zM5.399 12.483h-2.837v2.816h2.837v-2.816zM94.3 12.483h-2.837v2.816h2.837v-2.816zM88.627 12.483h-2.837v2.816h2.837v-2.816zM99.974 12.483h-2.837v2.816h2.837v-2.816zM121.372 16.974h-2.836v2.816h2.836v-2.816zM132.72 16.974h-2.837v2.816h2.837v-2.816zM127.046 16.974h-2.837v2.816h2.837v-2.816zM118.81 51.04h-2.836v2.816h2.836v-2.816zM124.484 51.04h-2.837v2.816h2.837v-2.816zM130.157 51.04h-2.837v2.816h2.837v-2.816zM128.466 37.374h-3.235v2.816h3.235v3.211h2.836v-3.211h3.235v-2.816h-3.235v-3.211h-2.836v3.211zM111.994 6.952h-3.234v2.816h3.234v3.211h2.837v-3.211h3.234v-2.816h-3.234v-3.211h-2.837v3.211z" />
  </svg>