<svg viewBox="0 0 96 96" xmlns="http://www.w3.org/2000/svg">
  <path
    d="M91.866 78.409c2.321-.813 3.88-2.987 3.88-5.409 0-3.876-3.363-6.396-7.411-5.529l-23.973 4.678c.381-.709.618-1.505.618-2.361 0-2.809-2.325-5.095-5.184-5.095h-13.182l-9.517-5.66h-16.202v-1.198c0-1.761-1.457-3.193-3.249-3.193h-17.392v35.416h17.392c1.791 0 3.249-1.432 3.249-3.193v-3.819l22.407 12.326 48.564-16.963zm-72.97 8.456c0 .677-.56 1.228-1.249 1.228h-15.392v-31.484h15.392c.689 0 1.249.551 1.249 1.228v29.029zm2-5.849v-20.017h15.644l9.517 5.66h13.74c1.755 0 3.184 1.404 3.184 3.129s-1.428 3.129-3.184 3.129h-13.782v1.966h13.782c.314 0 .618-.038.917-.091l.014.071 28.015-5.467c2.886-.62 5.003 1.047 5.003 3.604 0 1.593-1.025 3.023-2.551 3.557l-47.707 16.664-22.495-12.374-.097.17zM85.524 82.682l-1.885.658.67 1.852 1.885-.658-.67-1.852zM79.873 84.665l.67 1.852 1.885-.658-.67-1.852-1.885.658zM76.778 87.832l1.885-.658-.669-1.852-1.885.658.669 1.852zM69.243 90.466l1.885-.658-.67-1.852-1.885.658.67 1.852zM67.357 91.116l-.67-1.852-1.519.531.67 1.852 1.519-.531zM74.221 86.633l-1.885.658.669 1.852 1.885-.658-.669-1.852zM30.176 83.67l1.745.96.976-1.715-1.745-.96-.977 1.715zM26.685 81.75l1.745.96.977-1.715-1.745-.96-.977 1.715zM33.666 85.59l1.745.96.977-1.715-1.745-.96-.977 1.715zM10.807 58.682h-6.443v5.11h2v-3.144h4.443v-1.966zM6.364 65.906h-2v3.373h2v-3.373zM12.063 77.946c-2.135 0-3.872 1.707-3.872 3.805s1.737 3.805 3.872 3.805 3.871-1.707 3.871-3.805-1.736-3.805-3.871-3.805zm0 5.644c-1.032 0-1.872-.825-1.872-1.839s.839-1.839 1.872-1.839c1.032 0 1.871.825 1.871 1.839s-.839 1.839-1.871 1.839zM56.978 47.417h-2v2.364h2v-2.364zM84.153 47.417h-2v2.364h2v-2.364zM54.732 30.138h-2v1.966h2v-1.966zM50.603 30.241c-.722.096-1.437.258-2.127.482l.629 1.866c.572-.186 1.166-.321 1.765-.4l-.268-1.948zM46.477 31.582c-.635.345-1.242.75-1.803 1.203l1.27 1.519c.467-.377.972-.714 1.502-1.002l-.968-1.72zM44.31 59.378h50.512v-17.581c0-4.273-3.537-7.749-7.884-7.749h-6.897c-1.679-2.327-2.769-4.666-3.249-6.968 3.344-3.382 5.733-8.924 5.733-13.419 0-2.585-.81-5.115-2.295-7.23l.036-.026-.671-.807c-2.471-2.97-6.13-4.674-10.04-4.674-7.069 0-12.724 5.439-12.945 12.268v.019l-.002.023-.019.573.013.008c.053 4.468 2.422 9.922 5.727 13.263-.467 2.285-1.558 4.625-3.25 6.969h-6.885c-4.347 0-7.884 3.476-7.884 7.749v17.581zm30.706-33.326c-1.218 1.145-3.153 2.51-5.459 2.51-2.31 0-4.237-1.364-5.45-2.51-2.901-2.724-5.059-7.27-5.431-11.219.997.358 2.053.562 3.135.562 4.448 0 8.143-3.076 8.971-7.226 1.025.378 2.118.574 3.223.574 1.62 0 3.181-.418 4.574-1.206 1.26 1.791 1.948 3.933 1.948 6.123 0 4.183-2.317 9.395-5.509 12.391zm2.253-20.046c-4.262 2.141-7.768-.806-8.261-.968l-.06 1.628c-.139 3.793-3.274 6.763-7.139 6.763-1.106 0-2.185-.247-3.154-.718.504-5.768 5.38-9.821 10.901-9.821 2.961 0 5.757 1.206 7.713 3.116zm-13.239 22.546c1.761 1.29 3.645 1.975 5.526 1.975 1.88 0 3.768-.687 5.537-1.98.573 2.048 1.557 4.102 2.954 6.135-5.695 2.983-11.267 2.983-16.974 0 1.405-2.042 2.39-4.094 2.957-6.13zm-17.72 13.245c0-3.189 2.64-5.783 5.884-5.783h7.212c3.373 1.897 6.766 2.854 10.158 2.854 3.393 0 6.783-.957 10.15-2.854h7.224c3.245 0 5.884 2.594 5.884 5.783v15.615h-8.669v-5.969h-2v5.969h-25.174v-5.969h-2v5.969h-8.669v-15.615zM86.043 17.765l-1.957-.407c-.129.603-.29 1.216-.477 1.822l1.914.57c.203-.66.378-1.328.52-1.985zM82.213 22.698l1.802.853c.298-.608.577-1.237.829-1.87l-1.862-.716c-.233.587-.492 1.17-.768 1.733zM86.502 13.662h-2c0 .596-.037 1.219-.11 1.851l1.987.222c.082-.705.123-1.402.123-2.072zM75.845 17.558c-.799 2.248-2.12 4.383-3.535 5.71l1.382 1.421c1.656-1.555 3.129-3.918 4.04-6.484l-1.888-.648zM16.366 50.42h-14.125v1.966h14.125v-1.966zM14.903 45.562h-11.201v1.966h11.201v-1.966zM14.192 21.957h-2v1.966h2v-1.966zM6.192 21.957h-2v1.966h2v-1.966zM10.192 21.957h-2v1.966h2v-1.966zM22.349 7.371h-2v1.966h2v-1.966zM30.349 7.371h-2v1.966h2v-1.966zM26.349 7.371h-2v1.966h2v-1.966zM32.535 18.722h-2v1.966h2v-1.966zM40.535 18.722h-2v1.966h2v-1.966zM36.535 18.722h-2v1.966h2v-1.966zM12.08 3.249h-2.205v-2.168h-2v2.168h-2.206v1.966h2.206v2.168h2v-2.168h2.205v-1.966zM44.044 5.245v2.168h-2.206v1.966h2.206v2.168h2v-2.168h2.206v-1.966h-2.206v-2.168h-2zM22.194 31.792h2.206v2.168h2v-2.168h2.206v-1.966h-2.206v-2.168h-2v2.168h-2.206v1.966zM30.602 54.751h-2v1.966h2v-1.966zM26.602 54.751h-2v1.966h2v-1.966zM34.602 54.751h-2v1.966h2v-1.966z" />
  </svg>