<svg viewBox="0 0 66 66" xmlns="http://www.w3.org/2000/svg">
  <path
    d="M2.939 18.56c.318-.285.653-.559.997-.813l-.799-1.091c-.377.279-.745.58-1.094.893l.896 1.012zM11.065 15.08l-.103-1.351c-.465.036-.936.095-1.398.174l.228 1.336c.422-.073.85-.126 1.274-.159zM12.348 15.041c.427.007.858.034 1.281.081l.147-1.347c-.465-.051-.938-.081-1.407-.089l-.022 1.355zM6.134 16.415l-.585-1.221c-.422.204-.839.431-1.239.674l.695 1.161c.365-.221.745-.427 1.13-.614zM7.314 15.91c.399-.149.811-.282 1.223-.394l-.351-1.308c-.452.122-.904.268-1.342.431l.469 1.271zM4.301 37.766c3.691 3.3 9.093 3.979 13.548 1.48l28.574 25.541c1.465 1.31 3.717 1.176 5.018-.298 1.302-1.474 1.169-3.739-.296-5.048l-1.373-1.228 5.671-6.422-4.063-3.632-2.637 2.986-1.766-1.579 2.637-2.986-3.522-3.148-2.637 2.986-1.772-1.584 2.19-2.48.447-.506-4.057-3.626-5.671 6.422-11.863-10.604c2.203-4.599 1.275-10.344-2.79-13.978-4.9-4.379-12.338-3.858-16.617.987-4.32 4.892-3.883 12.37.981 16.718zm36.073 2.369l2.043 1.826-2.637 2.986 3.786 3.384 2.637-2.986 1.508 1.349-2.637 2.986 3.78 3.379 2.637-2.986 2.049 1.832-4.776 5.408-13.167-11.77 4.777-5.408zm-6.678 5.521l15.181 13.57 1.374 1.228c.912.815.994 2.218.184 3.136-.809.916-2.206.998-3.117.185l-28.283-25.281c.682-.498 1.315-1.07 1.884-1.714.426-.482.796-.998 1.134-1.531l11.644 10.408zm-29.369-23.708c3.794-4.297 10.382-4.748 14.716-.874 4.307 3.85 4.695 10.471.869 14.805-3.794 4.296-10.383 4.747-14.716.874-4.306-3.85-4.696-10.471-.869-14.805zM17.395 33.629l1.007.9c1.964-2.224 2.621-5.371 1.713-8.213l-1.282.415c.763 2.387.212 5.031-1.437 6.898zM19.286 24.499c-.43-.708-.963-1.348-1.585-1.905l-.895 1.013c.523.467.97 1.005 1.331 1.599l1.149-.707zM10.611 27.565c1.311-1.484 1.946-3.833.537-5.092-1.38-1.233-3.621-.384-4.963 1.136-1.311 1.484-1.946 3.833-.537 5.092 1.38 1.233 3.621.384 4.963-1.136zm-3.419-3.057c.69-.781 1.583-1.267 2.331-1.267.304 0 .549.082.731.244.79.707.091 2.341-.649 3.179-.841.952-2.325 1.681-3.062 1.023-.79-.707-.091-2.341.649-3.179zM33.959 47.959l-1.007-.9-.895 1.013 1.007.9.895-1.013zM35.975 49.755l-1.007-.9-.894 1.013 1.007.9.894-1.013zM31.945 46.159l-1.007-.9-.895 1.013 1.007.9.895-1.013zM29.932 44.358l-1.007-.9-.895 1.013 1.007.9.895-1.013zM27.918 42.558l-1.007-.9-.895 1.013 1.007.9.895-1.013zM25.904 40.759l-1.007-.9-.895 1.013 1.007.9.895-1.013zM52.391 4.003l-.587-1.219-.606.295.587 1.219.606-.295zM52.879 2.264l.587 1.219 1.071-.522-.587-1.219-1.071.522zM55.781 2.353l.138.139.952-.959-.815-.819-1.037.506.587 1.219.175-.085zM58.079 4.663l.952-.958-1.08-1.086-.952.958 1.08 1.086zM60.24 6.836l.952-.958-1.08-1.086-.952.958 1.08 1.086zM62.583 8.828l.504-1.043-.815-.82-.952.958.137.138-.085.175 1.212.592zM62.06 9.903l-1.211-.592-.52 1.076 1.211.592.52-1.076zM59.811 11.465l-.43.889.439 1.065.928.323.441-1.28-.31-.108.143-.297-1.211-.592zM63.437 13.245l-1.125-.392-.441 1.28 1.125.392.441-1.28zM65.654 14.018l-1.089-.379-.441 1.28.183.064v.195h1.347v-1.16zM65.654 19.787h-1.347v1.537h1.347v-1.537zM65.654 16.715h-1.347v1.537h1.347v-1.537zM65.654 22.86h-1.347v.196l-.183.064.442 1.28 1.088-.381v-1.16zM62.317 25.189l1.124-.393-.442-1.28-1.124.393.442 1.28zM60.113 24.518l.442 1.28.636-.222-.442-1.28-.636.222zM37.373 34.043l.589 1.219.606-.296-.589-1.219-.606.296zM35.822 36.305l1.07-.523-.589-1.219-1.07.523.588 1.219zM33.989 35.694l-.137-.138-.953.958.815.82 1.037-.506-.588-1.219-.174.085zM30.614 32.292l-1.08-1.087-.953.958 1.08 1.087.953-.958zM31.819 35.425l.953-.957-1.08-1.088-.953.957 1.08 1.088zM28.453 30.119l-.137-.139.085-.176-1.212-.591-.502 1.043.814.82.953-.957zM29.438 27.649l-1.212-.591-.518 1.076 1.212.591.518-1.076zM29.956 26.576l.428-.889-.437-1.062-.928-.325-.442 1.28.309.108-.143.297 1.212.591zM27.894 23.907l-1.124-.393-.442 1.28 1.124.393.442-1.28zM25.646 23.12l-.183-.064v-.196h-1.347v1.16l1.088.381.442-1.28zM25.463 19.787h-1.347v1.536h1.347v-1.536zM25.463 16.715h-1.347v1.537h1.347v-1.537zM25.463 14.983l.183-.064-.441-1.28-1.09.379v1.16h1.347v-.195zM26.772 14.526l1.124-.392-.441-1.28-1.124.392.441 1.28zM29.02 13.742l.636-.222-.441-1.28-.636.222.441 1.28zM41.829 37.203h6.112l1.455-4.221c.726-.237 1.434-.532 2.112-.882l3.998 1.953 4.318-4.349-1.937-4.019c.347-.685.639-1.398.873-2.125l4.2-1.468v-6.145l-4.201-1.464c-.238-.736-.532-1.449-.876-2.128l1.942-4.019-4.318-4.344-3.999 1.949c-.685-.35-1.393-.644-2.112-.876l-1.455-4.228h-6.113l-1.454 4.228c-.719.232-1.427.525-2.112.876l-3.999-1.949-4.318 4.344 1.937 4.024c-.348.688-.641 1.4-.874 2.124l-4.199 1.464v6.145l4.2 1.468c.234.727.526 1.439.873 2.125l-1.937 4.019 4.318 4.349 3.998-1.953c.678.349 1.386.645 2.112.882l1.455 4.221zm-3.537-6.624l-3.754 1.834-2.963-2.984 1.818-3.771c-1.486-3.084-1.062-2.583-1.294-3.15l-3.942-1.378v-4.216l3.942-1.374c1.081-3.156 1.073-2.617 1.294-3.15l-1.818-3.776 2.963-2.981 3.753 1.829c3.071-1.496 2.563-1.062 3.131-1.296l1.366-3.972h4.195l1.366 3.972c.537.221.148-.157 3.131 1.296l3.753-1.829 2.962 2.98-1.822 3.772c1.504 3.112 1.061 2.569 1.301 3.155l3.941 1.374v4.216l-3.942 1.378-.098.333c-.255.865-.603 1.71-1.033 2.512l-.163.305 1.818 3.771-2.963 2.984-3.754-1.834c-2.971 1.46-2.619 1.095-3.13 1.307l-1.365 3.962h-4.195l-1.365-3.962c-3.837-1.334-2.289-.951-3.13-1.307zM54.981 19.021c0-5.601-4.529-10.157-10.096-10.157s-10.096 4.557-10.096 10.157c0 5.601 4.529 10.157 10.096 10.157s10.096-4.556 10.096-10.157zm-18.845 0c0-4.854 3.925-8.802 8.749-8.802 4.824 0 8.749 3.948 8.749 8.802 0 4.853-3.925 8.802-8.749 8.802-4.824 0-8.749-3.948-8.749-8.802zM11.361 60.549h-1.347v1.355h1.347v-1.355zM5.972 60.549h-1.347v1.355h1.347v-1.355zM8.666 60.549h-1.347v1.355h1.347v-1.355zM18.6 49.513h-1.347v1.355h1.347v-1.355zM23.988 49.513h-1.347v1.355h1.347v-1.355zM21.294 49.513h-1.347v1.355h1.347v-1.355zM56.453 38.5h-1.347v1.355h1.347v-1.355zM59.147 38.5h-1.347v1.355h1.347v-1.355zM61.841 38.5h-1.347v1.355h1.347v-1.355zM56.453 58.942h-1.347v1.355h1.347v-1.355zM61.841 58.942h-1.347v1.355h1.347v-1.355zM59.147 58.942h-1.347v1.355h1.347v-1.355zM38.119 62.226l1.037.865.86-1.043-1.037-.865-.86 1.043zM32.752 55.993l-.86 1.043 1.037.865.86-1.043-1.037-.865zM34.826 57.722l-.86 1.043 1.037.865.86-1.043-1.037-.865zM36.9 59.451l-.86 1.043 1.037.865.86-1.043-1.037-.865zM21.68 57.356h-1.58v1.355h1.58v1.59h1.347v-1.59h1.58v-1.355h-1.58v-1.589h-1.347v1.589zM8.021 47.339v1.589h-1.58v1.355h1.58v1.589h1.347v-1.589h1.58v-1.355h-1.58v-1.589h-1.347zM64.54 47.587h-1.58v-1.59h-1.347v1.59h-1.58v1.355h1.58v1.589h1.347v-1.589h1.58v-1.355zM8.666 7.603h-1.347v1.355h1.347v-1.355zM5.972 7.603h-1.347v1.355h1.347v-1.355zM11.361 7.603h-1.347v1.355h1.347v-1.355zM23.027 7.354v-1.59h1.58v-1.355h-1.58v-1.589h-1.347v1.589h-1.58v1.355h1.58v1.59h1.347z" />
  </svg>