<svg viewBox="0 0 96 96" xmlns="http://www.w3.org/2000/svg">
  <path
    d="M61.376 26.998l-.65-1.858c-2.077.703-4.171 1.255-6.223 1.641l.377 1.93c2.144-.403 4.33-.98 6.496-1.713zM33.802 20.293h-2v6.476l.675.228c1.483.502 2.98.932 4.447 1.278l.467-1.911c-1.184-.28-2.388-.616-3.589-1.003v-5.068zM26.811 26.945c0 .936.294 1.823.799 2.57-.626 7.892 3.783 17.585 9.515 22.791.073 3.415-.954 6.894-3.086 10.361h-15.062c-5.38 0-9.757 4.302-9.757 9.59v23.095h75.42v-23.095c0-5.288-4.377-9.59-9.757-9.59h-15.063c-2.078-3.384-3.108-6.796-3.092-10.157 5.96-5.261 9.821-14.53 9.821-21.31 0-.657-.044-1.33-.115-2.004.382-.676.606-1.443.606-2.249v-13.242l6.3-2.079h1.652c.088 0 .159.07.159.156v14.074c-1.342.417-2.315 1.653-2.315 3.109 0 .663.201 1.295.574 1.829l-1.899 7.154c-.137.517-.024 1.055.308 1.478.332.422.834.665 1.377.665h5.911c.544 0 1.047-.243 1.379-.666.332-.423.443-.962.306-1.477l-1.899-7.153c.473-.674.666-1.498.535-2.337-.192-1.231-1.095-2.232-2.275-2.599v-14.076c0-1.17-.969-2.122-2.159-2.122h-1.652l-26.412-8.714-29.391 9.697 9.272 3.059v13.244zm55.828 45.311v21.129h-11.684v-8.432h-2v8.432h-44.051v-8.432h-2v8.432h-11.685v-21.129c0-4.204 3.479-7.624 7.757-7.624h14.929l13.024 25.601 13.023-25.601h14.931c4.277 0 7.757 3.42 7.757 7.624zm-24.476-8.505l-11.235 22.086-11.234-22.084c2.028-3.276 3.161-6.586 3.388-9.873 2.405 1.689 5.087 2.717 7.954 2.717 2.786 0 5.399-.965 7.752-2.567.259 3.247 1.388 6.506 3.375 9.722zm-11.127-9.12c-9.606 0-17.53-14.116-17.501-23.493 3.189 1.466 10.651 3.199 17.393 3.199 7.486 0 15.415-2.142 17.616-3.301.096 9.349-7.843 23.595-17.508 23.595zm18.004-27.686c0 1.122-.717 2.132-1.783 2.514-10.834 3.878-21.823 3.878-32.663 0-1.066-.382-1.783-1.393-1.783-2.515v-12.584l18.118 5.978 18.111-5.975v12.582zm11.644 3.314l2.087 7.863h-5.239l2.087-7.863-.405-.398c-.243-.239-.377-.558-.377-.898 0-.771.68-1.379 1.487-1.284.558.069 1.042.531 1.127 1.074.137.884-.581 1.264-.766 1.507zm-29.755-27.242l20.127 6.64h-16.441c-.52-.86-1.705-1.449-3.121-1.449-1.909 0-3.404 1.068-3.404 2.432 0 1.364 1.495 2.432 3.404 2.432 1.416 0 2.601-.589 3.121-1.449h16.441l-20.127 6.641-23.105-7.624 23.105-7.623zm1.973 7.604c-.048.134-.554.486-1.408.486-.855 0-1.359-.352-1.407-.447.048-.134.554-.486 1.407-.486.855 0 1.36.352 1.408.447zM24.904 78.045h-2v3.852h2v-3.852zM70.955 78.045h-2v3.852h2v-3.852zM39.39 44.597l-1.613 1.162c.421.563.861 1.102 1.31 1.602l1.498-1.302c-.408-.454-.81-.946-1.195-1.462zM40.572 48.838c.555.49 1.125.926 1.694 1.295l1.102-1.641c-.487-.315-.979-.691-1.46-1.116l-1.336 1.463zM37.365 41.382l-1.773.909c.321.606.666 1.203 1.024 1.772l1.701-1.033c-.332-.529-.652-1.084-.952-1.648zM35.824 37.905l-1.885.657c.231.642.487 1.279.762 1.894l1.832-.789c-.255-.572-.493-1.165-.709-1.762zM6.229 73.272h-2v1.966h2v-1.966zM6.229 85.067h-2v1.966h2v-1.966zM6.229 88.998h-2v1.966h2v-1.966zM6.229 77.204h-2v1.966h2v-1.966zM6.229 81.136h-2v1.966h2v-1.966zM84.686 61.437c-.531-.466-1.103-.898-1.699-1.285l-1.102 1.64c.516.334 1.01.708 1.469 1.111l1.332-1.467zM85.734 65.688l1.699-1.037c-.377-.596-.799-1.17-1.256-1.705l-1.531 1.264c.396.463.761.96 1.088 1.477zM74.882 59.727c.617 0 1.239.044 1.848.131l.289-1.945c-.704-.101-1.423-.152-2.137-.152v1.966zM78.538 60.253c.591.174 1.173.392 1.731.649l.848-1.78c-.645-.297-1.32-.55-2.004-.752l-.574 1.883zM89.004 68.075c-.161-.526-.356-1.05-.579-1.556l-1.836.78c.192.438.361.89.501 1.344l1.914-.568zM80.849 21.528h-2v1.966h2v-1.966zM80.849 13.665h-2v1.966h2v-1.966zM80.849 17.597h-2v1.966h2v-1.966zM2.033 50.723h-2v1.966h2v-1.966zM6.033 50.723h-2v1.966h2v-1.966zM10.033 50.723h-2v1.966h2v-1.966zM20.423 37.251h-2v1.966h2v-1.966zM16.423 37.251h-2v1.966h2v-1.966zM24.423 37.251h-2v1.966h2v-1.966zM15.292 14.125h-2v1.966h2v-1.966zM11.292 14.125h-2v1.966h2v-1.966zM7.292 14.125h-2v1.966h2v-1.966zM10.22 29.329h2v-1.66h1.689v-1.966h-1.689v-1.66h-2v1.66h-1.688v1.966h1.688v1.66zM87.967 53.459h-2v1.966h2v-1.966zM91.967 53.459h-2v1.966h2v-1.966zM95.967 53.459h-2v1.966h2v-1.966zM77.974 46.257h-2v1.966h2v-1.966zM73.974 46.257h-2v1.966h2v-1.966zM69.974 46.257h-2v1.966h2v-1.966zM95.105 21.165h-2v1.966h2v-1.966zM87.105 21.165h-2v1.966h2v-1.966zM91.105 21.165h-2v1.966h2v-1.966zM86.487 32.743v1.966h1.689v1.66h2v-1.66h1.688v-1.966h-1.688v-1.66h-2v1.66h-1.689z" />
  </svg>