<svg viewBox="0 0 72 72" xmlns="http://www.w3.org/2000/svg">
  <path
    d="M55.509 61.037c-.361.306-.733.606-1.116.898l.893 1.167c.402-.307.793-.622 1.173-.944l-.95-1.121zM56.575 60.084l1.007 1.07c.369-.348.726-.702 1.07-1.064l-1.065-1.012c-.325.342-.663.678-1.012 1.007zM58.541 58.016l1.122.95c.328-.387.642-.781.943-1.181l-1.175-.883c-.283.377-.58.749-.889 1.114zM60.248 55.738l1.228.808c.279-.424.543-.856.792-1.292l-1.277-.727c-.233.41-.481.814-.743 1.212zM62.23 51.974c-.175.434-.369.87-.576 1.296l1.322.642c.221-.456.429-.923.617-1.388l-1.362-.55zM10.732 50.813l-1.263.751c.859 1.444 1.981 2.805 3.333 4.044l.993-1.083c-1.247-1.143-2.278-2.391-3.064-3.712zM14.729 57.178c.608.441 1.255.864 1.92 1.257l.747-1.266c-.626-.369-1.233-.767-1.804-1.181l-.863 1.19zM48.529 30.838l-.774 1.249c3.36 2.082 5.797 4.769 7.05 7.768l1.356-.566c-1.371-3.284-4.011-6.206-7.632-8.451zM42.534 29.633c.922.317 1.824.681 2.683 1.083l.623-1.331c-.905-.424-1.857-.807-2.828-1.141l-.478 1.39zM17.164 35.695c0-1.581-1.286-2.868-2.867-2.868s-2.867 1.286-2.867 2.868c0 1.581 1.286 2.867 2.867 2.867s2.867-1.286 2.867-2.867zm-2.867 1.398c-.771 0-1.398-.627-1.398-1.398 0-.771.627-1.398 1.398-1.398.771 0 1.398.627 1.398 1.398 0 .771-.627 1.398-1.398 1.398zM69.796 43.858c0 1.44-1.172 2.612-2.612 2.612-2.516 0-2.093-2.824-5.753-3.299-.677-8.738-7.996-16.375-18.741-19.476 1.252-2.054 1.987-4.456 1.987-7.033 0-7.48-6.086-13.566-13.566-13.566s-13.566 6.086-13.566 13.566c0 2.858.893 5.508 2.408 7.697-.82.295-1.632.611-2.421.967-1.594-2.45-4.104-4.214-6.981-4.886l-.718-.168-.165.718c-.658 2.864-.183 5.874 1.3 8.364-2.161 1.774-3.903 3.774-5.187 5.955l-5.043 1.3v14.077l4.017 1.03c2.118 4.75 6.308 8.827 11.862 11.54l.948 7.822h10.455l.556-4.506c2.371.245 5.117.246 7.528.005l.549 4.501h10.456l.948-7.836c8.356-4.063 13.35-10.971 13.425-18.572 2.785.542 2.345 3.269 5.704 3.269 2.25 0 4.081-1.831 4.081-4.081h-1.47zm-38.685-39.293c6.67 0 12.097 5.427 12.097 12.097s-5.427 12.097-12.097 12.097-12.097-5.427-12.097-12.097 5.427-12.097 12.097-12.097zm15.951 57.524l-.368.173-.889 7.347h-7.853l-.568-4.661-.73.09c-2.724.335-5.961.335-8.626-.007l-.732-.094-.577 4.673h-7.853l-.889-7.331-.367-.173c-5.541-2.618-9.678-6.63-11.65-11.296l-.142-.335-3.613-.926v-11.799l4.541-1.17.154-.271c1.3-2.293 3.148-4.383 5.492-6.212l.543-.424-.389-.569c-1.396-2.046-1.96-4.569-1.591-7.028 2.384.755 4.416 2.385 5.65 4.557l.338.595.617-.294c1.08-.515 2.208-.961 3.352-1.353 1.441 1.646 3.269 2.937 5.344 3.736h-4.011v1.469h17.73v-1.469h-4.011c2.324-.895 4.337-2.406 5.843-4.34 10.911 2.98 18.21 10.776 18.21 19.521 0 7.197-4.844 13.773-12.957 17.592zM31.125 26.555h.006l.008-.342-.028-1.127c-.442 0-.885-.034-1.317-.103l-.229 1.451c.505.08 1.024.12 1.561.12zM37.084 22.596l1.043 1.035c.364-.367.702-.764 1.003-1.182l-1.19-.861c-.258.356-.546.695-.856 1.008zM38.628 20.46l1.311.664c.233-.461.433-.944.591-1.435l-1.398-.451c-.135.418-.304.829-.503 1.221zM39.435 17.954l1.452.225c.077-.498.116-1.008.116-1.517v-.028l-1.469.028c0 .434-.033.868-.099 1.291zM24.3 21.615c-.259-.355-.492-.734-.693-1.125l-1.307.671c.235.459.509.903.813 1.32l1.187-.865zM39.427 15.319l1.451-.233c-.082-.51-.205-1.017-.366-1.508l-1.396.459c.137.417.242.848.312 1.282zM32.461 24.977l.235 1.451c.51-.083 1.017-.207 1.507-.368l-.46-1.395c-.416.137-.848.242-1.282.313zM34.959 24.154l.674 1.306c.458-.237.902-.512 1.318-.817l-.87-1.185c-.355.261-.732.495-1.122.696zM32.411 8.339l.225-1.452c-.502-.078-1.004-.12-1.484-.116l-.06-.001.019 1.47c.434 0 .872.034 1.3.1zM29.776 8.345l-.231-1.451c-.509.081-1.017.204-1.509.365l.458 1.396c.418-.137.849-.241 1.282-.31zM35.581 7.839c-.46-.234-.943-.433-1.435-.593l-.452 1.398c.419.135.829.305 1.22.504l.666-1.309zM38.086 9.654c-.366-.364-.763-.703-1.181-1.006l-.862 1.19c.356.258.695.546 1.007.857l1.037-1.041zM38.605 12.821l1.306-.673c-.236-.458-.51-.902-.816-1.319l-1.185.869c.26.355.494.733.695 1.123zM28.056 26.073l.454-1.398c-.418-.136-.828-.306-1.219-.506l-.669 1.308c.461.236.944.436 1.435.596zM23.6 12.85l-1.309-.666c-.235.462-.435.944-.594 1.434l1.398.453c.135-.417.305-.827.505-1.221zM25.149 10.718l-1.04-1.038c-.365.366-.703.763-1.007 1.18l1.189.864c.258-.356.547-.694.858-1.006zM22.788 15.354l-1.451-.227c-.079.505-.119 1.022-.119 1.536v.009l1.469-.009c0-.438.034-.879.101-1.309zM22.791 17.988l-1.451.23c.081.512.204 1.02.364 1.509l1.397-.456c-.136-.416-.24-.848-.309-1.283zM27.275 9.165l-.671-1.307c-.457.235-.901.509-1.319.814l.867 1.187c.357-.26.734-.494 1.124-.693zM25.3 24.665l.865-1.188c-.356-.259-.694-.548-1.005-.858l-1.039 1.039c.365.365.762.704 1.179 1.008zM55.036 18.217h-1.469v1.469h1.469v-1.469zM57.975 18.217h-1.469v1.469h1.469v-1.469zM52.097 18.217h-1.469v1.469h1.469v-1.469zM69.174 9.734h-1.469v1.469h1.469v-1.469zM66.235 9.734h-1.469v1.469h1.469v-1.469zM63.296 9.734h-1.469v1.469h1.469v-1.469zM52.413.922h-1.469v1.469h1.469v-1.469zM55.352.922h-1.469v1.469h1.469v-1.469zM49.474.922h-1.469v1.469h1.469v-1.469zM65.296 28.051v-1.496h1.496v-1.469h-1.496v-1.496h-1.469v1.496h-1.496v1.469h1.496v1.496h1.469zM52.151 10.179h-1.496v-1.496h-1.469v1.496h-1.496v1.469h1.496v1.496h1.469v-1.496h1.496v-1.469zM9.463 15.278h-1.469v1.469h1.469v-1.469zM6.524 15.278h-1.469v1.469h1.469v-1.469zM3.585 15.278h-1.469v1.469h1.469v-1.469zM65.43 64.197h-1.469v1.469h1.469v-1.469zM68.368 64.197h-1.469v1.469h1.469v-1.469zM62.491 64.197h-1.469v1.469h1.469v-1.469zM7.205 65.317h-1.469v1.469h1.469v-1.469zM10.144 65.317h-1.469v1.469h1.469v-1.469zM4.266 65.317h-1.469v1.469h1.469v-1.469zM10.616.922h-1.469v1.469h1.469v-1.469zM7.677.922h-1.469v1.469h1.469v-1.469zM13.555.922h-1.469v1.469h1.469v-1.469zM13.109 11.675v-1.496h1.496v-1.469h-1.496v-1.496h-1.469v1.496h-1.496v1.469h1.496v1.496h1.469z" />
</svg>