<svg viewBox="0 0 65 64" xmlns="http://www.w3.org/2000/svg">
  <path
    d="M59.651 50.542h-1.309v1.317h1.309v-1.317zM59.651 45.275h-1.309v1.317h1.309v-1.317zM59.651 53.175h-1.309v1.317h1.309v-1.317zM59.651 55.809h-1.309v1.317h1.309v-1.317zM59.651 47.908h-1.309v1.317h1.309v-1.317zM52.372 26.343h-1.309v.658h1.309v-.658zM52.372 18.119h-1.309v1.371h1.309v-1.371zM52.372 12.637h-1.309v1.37h1.309v-1.37zM52.372 15.378h-1.309v1.37h1.309v-1.37zM52.372 23.602h-1.309v1.371h1.309v-1.371zM52.372 7.154h-1.309v1.371h1.309v-1.371zM52.372 20.86h-1.309v1.371h1.309v-1.371zM52.372 9.896h-1.309v1.37h1.309v-1.37zM52.372 4.468h-1.309v1.317h1.309v-1.317zM31.716 4.468h-1.29v1.317h1.29v-1.317zM34.295 4.468h-1.29v1.317h1.29v-1.317zM42.034 4.468h-1.29v1.317h1.29v-1.317zM21.398 4.468h-1.29v1.317h1.29v-1.317zM39.455 4.468h-1.29v1.317h1.29v-1.317zM36.875 4.468h-1.29v1.317h1.29v-1.317zM29.137 4.468h-1.29v1.317h1.29v-1.317zM44.614 4.468h-1.29v1.317h1.29v-1.317zM26.557 4.468h-1.29v1.317h1.29v-1.317zM23.977 4.468h-1.29v1.317h1.29v-1.317zM18.818 4.468h-1.29v1.317h1.29v-1.317zM49.773 4.468h-1.29v1.317h1.29v-1.317zM47.194 4.468h-1.29v1.317h1.29v-1.317zM16.238 4.468h-1.309v1.317h1.309v-1.317zM16.238 50.885h-1.309v1.288h1.309v-1.288zM16.238 25.113h-1.309v1.289h1.309v-1.289zM16.238 22.536h-1.309v1.289h1.309v-1.289zM16.238 27.69h-1.309v1.289h1.309v-1.289zM16.238 17.382h-1.309v1.289h1.309v-1.289zM16.238 30.268h-1.309v1.288h1.309v-1.288zM16.238 32.845h-1.309v1.288h1.309v-1.288zM16.238 9.649h-1.309v1.289h1.309v-1.289zM16.238 7.072h-1.309v1.289h1.309v-1.289zM16.238 12.227h-1.309v1.289h1.309v-1.289zM16.238 14.805h-1.309v1.288h1.309v-1.288zM16.238 19.959h-1.309v1.288h1.309v-1.288zM16.238 45.73h-1.309v1.288h1.309v-1.288zM16.238 48.308h-1.309v1.288h1.309v-1.288zM16.238 53.462h-1.309v1.289h1.309v-1.289zM16.238 56.039h-1.309v1.289h1.309v-1.289zM16.238 40.576h-1.309v1.289h1.309v-1.289zM16.238 35.422h-1.309v1.288h1.309v-1.288zM16.238 43.153h-1.309v1.289h1.309v-1.289zM16.238 37.999h-1.309v1.289h1.309v-1.289zM16.238 58.617h-1.309v1.317h1.309v-1.317zM18.818 58.617h-1.29v1.317h1.29v-1.317zM49.773 58.617h-1.29v1.317h1.29v-1.317zM31.716 58.617h-1.29v1.317h1.29v-1.317zM39.455 58.617h-1.29v1.317h1.29v-1.317zM36.875 58.617h-1.29v1.317h1.29v-1.317zM44.614 58.617h-1.29v1.317h1.29v-1.317zM42.035 58.617h-1.29v1.317h1.29v-1.317zM34.296 58.617h-1.29v1.317h1.29v-1.317zM26.557 58.617h-1.29v1.317h1.29v-1.317zM23.977 58.617h-1.29v1.317h1.29v-1.317zM47.193 58.617h-1.29v1.317h1.29v-1.317zM21.398 58.617h-1.29v1.317h1.29v-1.317zM29.136 58.617h-1.29v1.317h1.29v-1.317zM52.372 58.617h-1.309v1.317h1.309v-1.317zM52.372 52.679h-1.309v1.485h1.309v-1.485zM52.372 55.648h-1.309v1.484h1.309v-1.484zM52.372 49.709h-1.309v1.485h1.309v-1.485zM52.372 47.566h-1.309v.658h1.309v-.658zM38.655 43.224h-12.283v1.317h12.283v-1.317zM24.861 43.149h-3.408v1.317h3.408v-1.317zM36.617 47.454h-15.165v1.317h15.165v-1.317zM35.682 51.598h-7.92v1.317h7.92v-1.317zM25.616 51.598h-4.164v1.317h4.164v-1.317zM60.65 26.655l-1.834-1.845c-.689-.693-1.772-.843-2.64-.464v-23.746h-52.903v14.341h-3.273v1.317h3.273v9.751h-3.273v1.317h3.273v9.751h-3.273v1.317h3.273v9.751h-3.273v1.317h3.273v14.341h52.903v-22.957l4.77-4.798c1.127-1.134 1.519-2.729 1.184-4.187l1.834-1.845c.919-.925.92-2.422 0-3.347-.885-.89-2.424-.893-3.314-.011zm-5.783 35.83h-50.285v-13.025h1.856c.303 1.47 1.6 2.578 3.15 2.578 1.774 0 3.218-1.452 3.218-3.237 0-1.785-1.443-3.237-3.218-3.237-1.55 0-2.846 1.108-3.15 2.578h-1.856v-9.751h1.856c.303 1.47 1.6 2.579 3.15 2.579 1.774 0 3.218-1.452 3.218-3.237 0-1.785-1.443-3.237-3.218-3.237-1.55 0-2.846 1.108-3.15 2.578h-1.856v-9.75h1.856c.303 1.47 1.6 2.578 3.15 2.578 1.774 0 3.218-1.452 3.218-3.237 0-1.785-1.443-3.237-3.218-3.237-1.55 0-2.847 1.108-3.15 2.579h-1.856v-9.751h1.856c.303 1.47 1.6 2.578 3.15 2.578 1.774 0 3.218-1.452 3.218-3.237 0-1.785-1.443-3.237-3.218-3.237-1.55 0-2.846 1.108-3.15 2.579h-1.856v-13.025h50.285v23.513l-9.343 9.4.925.931 9.958-10.019c.409-.411 1.074-.411 1.483 0l1.833 1.844-.92.925c-1.544-.358-3.087.113-4.162 1.194l-14.802 14.892-2.884 9.244 9.188-2.902 8.723-8.776v20.324zm-47.065-14.341c.268-.734.964-1.262 1.786-1.262 1.053 0 1.909.861 1.909 1.92s-.856 1.92-1.909 1.92c-.822 0-1.517-.528-1.786-1.262h1.786v-1.317h-1.786zm0-11.068c.268-.734.964-1.262 1.786-1.262 1.053 0 1.909.861 1.909 1.92s-.856 1.92-1.909 1.92c-.822 0-1.517-.528-1.786-1.262h1.786v-1.317h-1.786zm0-11.067c.268-.734.964-1.262 1.786-1.262 1.052 0 1.909.862 1.909 1.92 0 1.059-.856 1.92-1.909 1.92-.822 0-1.517-.528-1.786-1.262h1.786v-1.317h-1.786zm0-11.068c.268-.734.964-1.262 1.786-1.262 1.053 0 1.909.861 1.909 1.92s-.856 1.92-1.909 1.92c-.822 0-1.517-.528-1.786-1.262h1.786v-1.317h-1.786zm46.187 17.281l4.453 4.48-12.997 13.075-6.491 2.05 2.037-6.53 12.997-13.076zm6.031 2.893l-.653.657-4.453-4.48.653-.657c1.23-1.238 3.223-1.238 4.453 0 1.228 1.235 1.228 3.245 0 4.48zm3.018-6.033l-1.446 1.454c-.18-.296-.392-.577-.647-.833-.253-.254-.533-.469-.829-.652l1.446-1.454c.977-.985 2.446.51 1.476 1.485zM54.188 37.432l-.925-.931-8.79 8.844.925.931 8.79-8.844zM59.651 15.101h-1.309v1.317h1.309v-1.317zM59.651 7.201h-1.309v1.317h1.309v-1.317zM59.651 4.567h-1.309v1.317h1.309v-1.317zM59.651 9.834h-1.309v1.317h1.309v-1.317zM59.651 12.468h-1.309v1.317h1.309v-1.317zM34.305 27.392h-1.309v1.137h1.309v-1.137zM33.777 14.047c-1.222-.036-2.373.418-3.246 1.272-.873.855-1.354 2.001-1.354 3.226h1.309c0-.867.34-1.678.958-2.282.618-.605 1.429-.922 2.297-.9 1.649.046 3.027 1.433 3.073 3.092.039 1.428-.879 2.718-2.234 3.135-.948.292-1.584 1.15-1.584 2.134v2.347h1.309v-2.347c0-.402.265-.753.659-.875 1.915-.591 3.214-2.413 3.158-4.431-.064-2.346-2.014-4.307-4.345-4.372zM27.673 31.117c.394.251.808.48 1.23.679l.557-1.191c-.373-.177-.738-.378-1.086-.6l-.701 1.112zM33.651 32.859c.239 0 .476-.007.712-.023l-.083-1.314c-.41.026-.83.026-1.24.002l-.078 1.314c.228.014.458.021.689.021zM30.209 32.316c.444.144.901.261 1.359.348l.243-1.294c-.405-.077-.808-.18-1.2-.308l-.402 1.253zM23.265 25.775l1.215-.487c-.152-.386-.282-.783-.384-1.183l-1.267.328c.116.454.262.905.436 1.342zM25.676 27.462c-.243-.335-.467-.688-.666-1.05l-1.145.637c.225.41.479.81.755 1.189l1.057-.777zM35.509 31.366l.245 1.294c.457-.087.914-.206 1.359-.351l-.404-1.252c-.392.129-.796.233-1.199.31zM23.844 16.222c-.225.412-.425.843-.596 1.279l1.218.482c.15-.384.327-.764.526-1.129l-1.148-.632zM37.858 30.597l.559 1.191c.421-.2.835-.429 1.228-.681l-.703-1.111c-.347.222-.711.425-1.084.601zM27.371 29.273c-.316-.263-.62-.549-.904-.852l-.953.903c.321.343.665.667 1.024.965l.833-1.016zM29.425 12.644c.372-.178.759-.333 1.15-.462l-.408-1.251c-.442.146-.881.322-1.303.524l.561 1.189zM27.343 13.983c.316-.265.652-.513 1-.736l-.706-1.109c-.393.253-.774.534-1.131.833l.837 1.013zM31.773 11.869c.403-.078.817-.131 1.229-.159l-.085-1.314c-.467.031-.935.091-1.391.18l.247 1.293zM37.822 12.618l.555-1.193c-.422-.199-.861-.372-1.307-.516l-.4 1.254c.393.127.781.28 1.153.455zM35.469 11.858l.24-1.294c-.458-.086-.926-.144-1.392-.171l-.077 1.314c.411.024.825.075 1.229.151zM23.864 22.88c-.052-.41-.079-.828-.079-1.243l-1.309.002c.001.47.031.944.089 1.408l1.299-.166zM24.086 19.168l-1.268-.324c-.115.455-.202.922-.259 1.387l1.299.161c.05-.411.127-.823.228-1.224zM26.442 14.839l-.956-.899c-.318.342-.618.708-.892 1.088l1.06.773c.242-.336.507-.66.788-.962zM39.942 29.262l.835 1.014c.359-.299.703-.624 1.022-.967l-.954-.901c-.282.302-.586.589-.903.854zM42.828 25.269l1.217.485c.172-.436.318-.889.433-1.344l-1.268-.326c-.102.402-.231.8-.382 1.185zM44.028 17.435c-.173-.434-.376-.862-.603-1.273l-1.144.639c.2.363.379.741.532 1.124l1.215-.49zM41.635 27.448l1.058.775c.275-.38.528-.781.752-1.192l-1.146-.635c-.198.363-.422.717-.664 1.052zM39.913 13.946l.831-1.017c-.36-.298-.742-.576-1.137-.826l-.699 1.113c.348.221.686.467 1.004.73zM40.82 14.796c.282.301.55.623.794.958l1.055-.779c-.276-.378-.578-.743-.898-1.083l-.951.905zM43.44 22.86l1.299.163c.058-.463.087-.937.087-1.393v-.058l-1.309.044c0 .416-.026.835-.077 1.244zM43.2 19.109c.103.4.183.811.236 1.223l1.298-.169c-.06-.466-.15-.933-.267-1.386l-1.267.332z" />
  </svg>