<svg viewBox="0 0 60 63" xmlns="http://www.w3.org/2000/svg">
  <path
    d="M56.03 36.228l-1.204-.501c-.353.828-.733 1.66-1.128 2.47l1.177.559c.404-.83.793-1.681 1.154-2.529zM29.533 54.595l-.107-.083-.814 1.009.921.714.921-.714-.814-1.009-.107.083zM8.647 24.565l1.284-.237c-.08-.422-.152-.836-.217-1.241l-1.29.201c.066.417.14.843.222 1.277zM22.781 50.354c.303.304.612.607.927.909l.911-.924c-.309-.296-.612-.593-.908-.89l-.93.905zM18.703 43.717l-1.046.773c.259.342.524.684.797 1.026l1.027-.797c-.266-.334-.525-.668-.777-1.002zM21.955 47.612l-.971.864c.29.317.585.633.888.949l.949-.886c-.295-.309-.585-.617-.867-.927zM15.851 39.535l-1.119.665c.223.366.453.732.69 1.099l1.102-.693c-.232-.358-.455-.715-.673-1.072zM10.794 28.007l-1.258.346c.115.41.239.824.369 1.243l1.249-.38c-.128-.407-.247-.81-.36-1.209zM13.449 35.088l-1.184.546c.183.387.373.775.571 1.165l1.168-.577c-.193-.38-.378-.759-.556-1.135zM9.204 27.099l1.268-.309c-.103-.415-.2-.823-.288-1.227l-1.277.272c.091.415.189.836.297 1.264zM24.655 52.153c.316.291.637.581.964.87l.871-.961c-.321-.283-.636-.568-.945-.853l-.89.943zM10.309 30.829c.138.403.284.81.439 1.221l1.225-.448c-.149-.399-.292-.795-.426-1.187l-1.237.414zM8.241 22.003l1.296-.161c-.055-.428-.101-.845-.141-1.251l-1.3.123c.041.419.089.848.145 1.289zM11.726 34.454l1.198-.514c-.171-.39-.335-.777-.491-1.161l-1.213.48c.161.396.33.794.506 1.195zM14.071 39.084l1.135-.637c-.212-.369-.418-.737-.615-1.103l-1.153.606c.203.376.414.755.633 1.134zM26.601 53.874c.327.279.659.556.998.833l.833-.993c-.331-.271-.657-.543-.978-.816l-.853.977zM20.282 45.701l-1.008.82c.275.329.556.658.844.987l.988-.843c-.281-.322-.556-.643-.825-.965zM16.887 43.445l1.064-.748c-.249-.346-.491-.691-.726-1.036l-1.084.719c.241.354.49.709.746 1.064zM7.924 18.123c.014.415.035.848.065 1.297l1.304-.084c-.029-.435-.05-.854-.064-1.256l-1.305.044zM8.6 16.812h.009l.6-.002v-.039l.057-.004-.103-1.286-.641.045-.603.036-.011.596-.005.657.698-.002zM17.175 15.21l-.412-1.224c-.402.132-.814.258-1.235.376l.358 1.241c.439-.124.869-.255 1.289-.393zM14.581 15.941l-.305-1.254c-.414.098-.835.189-1.265.273l.253 1.265c.448-.087.886-.182 1.317-.284zM11.938 16.456l-.203-1.274c-.42.065-.848.123-1.283.173l.152 1.281c.453-.052.897-.112 1.334-.18zM24.431 11.7l-.731-1.069c-.35.233-.712.462-1.086.687l.679 1.102c.392-.235.771-.475 1.138-.72zM19.697 14.258l-.522-1.183c-.388.167-.787.328-1.195.482l.466 1.205c.427-.161.844-.329 1.251-.504zM22.123 13.087l-.626-1.132c-.372.201-.755.396-1.147.586l.574 1.159c.411-.199.81-.403 1.2-.613zM26.602 10.112l-.825-1c-.327.263-.666.525-1.02.783l.778 1.036c.369-.27.724-.543 1.067-.819zM28.617 8.335l-.913-.922c-.3.29-.614.58-.944.871l.87.962c.345-.304.674-.608.987-.911zM29.491 7.375l.038-.035.038.035.441-.477.438-.405-.43-.464-.487-.538-.487.538-.43.465.44.406.439.475zM38.71 12.542c-.393-.191-.776-.386-1.149-.587l-.626 1.132c.389.21.79.415 1.201.614l.574-1.158zM43.538 14.365c-.42-.119-.833-.244-1.237-.377l-.412 1.224c.42.138.851.27 1.29.393l.358-1.24zM34.297 9.893c-.353-.259-.694-.52-1.021-.784l-.825.999c.342.275.698.549 1.067.82l.779-1.035zM48.618 15.357c-.436-.05-.864-.108-1.285-.173l-.202 1.275c.438.067.883.127 1.335.18l.152-1.281zM36.442 11.317c-.375-.226-.738-.455-1.09-.689l-.728 1.071c.367.244.747.484 1.138.72l.68-1.101zM31.423 9.242l.869-.963c-.33-.291-.645-.582-.945-.871l-.913.921c.314.304.643.608.989.913zM46.057 14.961c-.43-.083-.852-.174-1.266-.272l-.305 1.254c.431.102.87.197 1.318.284l.252-1.266zM41.082 13.558c-.409-.154-.808-.315-1.198-.482l-.519 1.183c.407.175.824.343 1.251.504l.467-1.205zM49.879 16.817l.599-.003h.006l.701-.004-.008-.653-.013-.594-.601-.036-.64-.044-.105 1.286.061.005v.044zM42.579 40.603l1.1.696c.238-.367.469-.734.693-1.099l-1.117-.667c-.218.356-.442.713-.675 1.07zM45.106 36.222l1.168.577c.198-.39.388-.779.571-1.165l-1.184-.546c-.178.376-.364.755-.556 1.135zM50.205 25.83l-1.277-.272c-.088.403-.184.812-.287 1.228l1.268.308c.107-.428.205-.849.296-1.264zM51.006 20.702l-1.301-.12c-.038.406-.083.823-.137 1.252l1.296.159c.056-.442.103-.873.142-1.291zM51.167 18.109l-1.306-.038c-.011.402-.031.822-.058 1.256l1.304.081c.029-.449.048-.883.061-1.299zM47.961 29.214l1.249.379c.131-.419.253-.834.369-1.244l-1.259-.345c-.112.399-.232.802-.358 1.209zM47.142 31.6l1.225.449c.154-.411.301-.819.439-1.222l-1.237-.414c-.135.392-.276.788-.427 1.187zM30.647 53.705l.833.993c.339-.277.672-.554.999-.832l-.852-.978c-.321.273-.647.545-.98.817zM50.683 23.278l-1.291-.197c-.064.406-.135.82-.213 1.243l1.285.233c.081-.434.154-.861.219-1.278zM39.614 44.713l1.026.798c.273-.342.539-.684.799-1.025l-1.045-.775c-.253.333-.513.667-.779 1.001zM37.983 46.659l.987.844c.288-.329.57-.658.846-.986l-1.006-.822c-.269.322-.545.643-.826.965zM32.589 52.054l.872.96c.327-.29.649-.58.964-.87l-.89-.943c-.309.285-.625.569-.946.853zM42.212 43.441c.256-.355.505-.709.747-1.062l-1.082-.722c-.237.345-.48.691-.729 1.037l1.064.748zM36.264 48.532l.949.886c.302-.316.599-.631.889-.947l-.968-.866c-.284.309-.574.618-.87.927zM34.464 50.33l.911.925c.315-.302.625-.605.928-.908l-.929-.907c-.298.297-.601.594-.91.89zM47.894 33.258l-1.212-.482c-.157.385-.322.773-.493 1.163l1.198.514c.177-.401.345-.799.507-1.194zM45.67 37.95l-1.152-.609c-.199.367-.404.735-.617 1.104l1.135.638c.218-.379.43-.757.634-1.133zM52.692 40.164c-2.459 4.577-5.637 8.934-9.447 12.951l.953.882c3.889-4.099 7.135-8.55 9.649-13.228l-1.154-.605zM11.785 7.413c.45-.082.886-.176 1.313-.279l-.311-1.253c-.402.097-.816.185-1.24.264l.238 1.268zM19.648 2.798c-.34.242-.693.476-1.047.694l.69 1.095c.38-.234.757-.484 1.121-.743l-.764-1.046zM9.132 7.76c.454-.037.897-.084 1.33-.14l-.17-1.279c-.412.054-.835.099-1.267.134l.107 1.285zM14.393 6.78c.438-.133.862-.277 1.274-.43l-.462-1.207c-.386.144-.785.279-1.197.405l.385 1.233zM17.507 4.115c-.364.192-.742.376-1.133.551l.538 1.175c.409-.183.816-.381 1.21-.588l-.615-1.138zM45.964 7.134c.426.103.863.196 1.313.279l.238-1.268c-.424-.078-.838-.166-1.24-.264l-.311 1.253zM41.554 4.115l-.615 1.138c.393.207.8.405 1.21.588l.538-1.175c-.392-.175-.769-.359-1.133-.551zM39.414 2.798l-.764 1.046c.364.259.741.509 1.121.743l.69-1.095c-.355-.218-.707-.452-1.047-.694zM43.856 5.143l-.462 1.207c.411.153.836.297 1.274.43l.385-1.232c-.412-.125-.811-.261-1.197-.405zM48.6 7.621c.432.056.876.103 1.33.14l.107-1.285c-.432-.035-.855-.08-1.267-.134l-.17 1.279zM3.272 10.32c-.909 4.483-.876 11.013.849 17.976 2.275 9.186 8.466 22.553 25.036 34.069l.376.261.376-.262c16.565-11.521 22.755-24.888 25.031-34.073 1.725-6.964 1.759-13.492.851-17.972-.355.019-1.447.115-2.931.115h-.002c-11.019 0-17.164-5.218-20.378-9.596l-.196-.266h-5.514l-.195.267c-5.632 7.68-13.758 9.99-23.303 9.481zm24.162-8.458h4.187c3.444 4.564 9.889 9.863 21.239 9.863.609 0 1.232-.016 1.858-.047.597 4.034 3.071 29.48-25.185 49.369-28.229-19.858-25.781-45.332-25.187-49.369 9.358.466 17.612-2.55 23.089-9.816zM46.325 60.515h-1.306v1.29h1.306v-1.29zM43.713 60.515h-1.306v1.29h1.306v-1.29zM41.101 60.515h-1.306v1.29h1.306v-1.29zM56.855 47.26h-1.306v1.29h1.306v-1.29zM59.468 47.26h-1.306v1.29h1.306v-1.29zM54.243 47.26h-1.306v1.29h1.306v-1.29zM55.961 56.222h-1.571v-1.551h-1.306v1.551h-1.571v1.29h1.571v1.551h1.306v-1.551h1.571v-1.29zM31.448 16.551h-1.571v-1.551h-1.306v1.551h-1.571v1.29h1.571v1.551h1.306v-1.551h1.571v-1.29zM14.982 60.515h-1.306v1.29h1.306v-1.29zM17.594 60.515h-1.306v1.29h1.306v-1.29zM20.206 60.515h-1.306v1.29h1.306v-1.29zM4.451 47.26h-1.306v1.29h1.306v-1.29zM1.839 47.26h-1.306v1.29h1.306v-1.29zM7.063 47.26h-1.306v1.29h1.306v-1.29zM5.61 59.063h1.306v-1.551h1.571v-1.29h-1.571v-1.551h-1.306v1.551h-1.571v1.29h1.571v1.551z" />
  </svg>