<svg viewBox="0 0 64 64" xmlns="http://www.w3.org/2000/svg">
  <path
    d="M41.912 51.869h-1.306v1.306h1.306v-1.306zM44.524 51.869h-1.306v1.306h1.306v-1.306zM39.3 51.869h-1.306v1.306h1.306v-1.306zM13.216 37.362h-1.306v1.306h1.306v-1.306zM15.828 37.362h-1.306v1.306h1.306v-1.306zM10.604 37.362h-1.306v1.306h1.306v-1.306zM13.216 9.741h-1.306v1.306h1.306v-1.306zM10.604 9.741h-1.306v1.306h1.306v-1.306zM15.828 9.741h-1.306v1.306h1.306v-1.306zM54.698 26.565h-1.306v1.306h1.306v-1.306zM49.474 26.565h-1.306v1.306h1.306v-1.306zM52.086 26.565h-1.306v1.306h1.306v-1.306zM43.627 8.156c-.419-.207-.858-.383-1.304-.524l-.392 1.246c.383.12.759.271 1.118.449l.578-1.171zM40.954 7.314c-.459-.07-.93-.106-1.399-.106v1.306c.403 0 .808.031 1.202.091l.197-1.292zM45.019 10.706l.902-.945c-.338-.322-.703-.622-1.086-.889l-.749 1.07c.329.23.643.487.933.764zM18.472 52.774l-.963.882c.315.344.653.667 1.006.962l.837-1.003c-.309-.258-.605-.541-.88-.842zM19.648 55.436c.407.251.828.468 1.252.645l.503-1.205c-.36-.151-.72-.335-1.067-.55l-.687 1.111zM17.086 50.78l-1.164.592c.208.41.45.813.717 1.197l1.072-.746c-.234-.336-.444-.686-.625-1.043zM15.379 50.078l1.24-.411c-.128-.384-.223-.773-.282-1.156l-1.29.202c.071.454.183.914.333 1.366zM46.489 12.608l1.143-.633c-.226-.408-.485-.802-.772-1.173l-1.033.799c.246.318.469.657.662 1.006zM17.836 15.32c-.46-.07-.93-.106-1.399-.106v1.306c.403 0 .808.031 1.202.091l.197-1.291zM23.371 20.615l1.143-.633c-.226-.408-.485-.802-.772-1.173l-1.033.799c.246.318.469.657.662 1.006zM46.163 48.677c.46.07.93.105 1.399.105v-1.306c-.403 0-.808-.031-1.202-.091l-.197 1.291zM20.509 16.163c-.419-.207-.857-.383-1.304-.524l-.392 1.246c.383.12.759.271 1.118.449l.579-1.171zM43.49 47.834c.419.207.858.383 1.304.524l.392-1.246c-.383-.12-.759-.271-1.118-.449l-.578 1.171zM40.628 43.381l-1.143.633c.225.407.485.802.772 1.173l1.034-.798c-.246-.319-.469-.657-.663-1.007zM42.098 45.285l-.902.945c.338.322.703.622 1.086.889l.749-1.07c-.329-.23-.642-.487-.933-.764zM21.901 18.713l.902-.945c-.338-.322-.703-.622-1.086-.889l-.749 1.07c.329.23.642.487.933.764zM.653 4.467v55.065c0 2.103 1.711 3.814 3.815 3.814h55.065c2.103 0 3.814-1.711 3.814-3.814v-55.065c0-2.103-1.711-3.814-3.814-3.814h-55.065c-2.103 0-3.815 1.711-3.815 3.814zm3.815-2.508h26.878v2.612h-1.257v1.306h1.257v8.031h4.277l.196-.26c.894-1.188 2.256-1.869 3.736-1.869 2.568 0 4.657 2.089 4.657 4.656 0 2.568-2.089 4.656-4.657 4.656-1.481 0-2.843-.681-3.736-1.869l-.196-.26h-4.277v12.382h-11.076v-2.33c1.357-1.141 2.129-2.789 2.129-4.573 0-3.288-2.675-5.963-5.962-5.963-3.288 0-5.962 2.675-5.962 5.963 0 1.784.772 3.432 2.129 4.573v2.33h-6.725v-1.257h-1.306v1.257h-2.613v-26.878c0-1.383 1.125-2.508 2.509-2.508zm-2.509 57.573v-26.881h2.613v1.26h1.306v-1.26h8.032v-4.277l-.26-.196c-1.188-.894-1.869-2.256-1.869-3.736 0-2.568 2.089-4.657 4.656-4.657 2.568 0 4.656 2.089 4.656 4.657 0 1.481-.681 2.842-1.869 3.736l-.26.196v4.277h12.382v11.076h-2.33c-1.141-1.357-2.789-2.129-4.573-2.129-3.288 0-5.963 2.675-5.963 5.962 0 3.288 2.675 5.962 5.963 5.962 1.784 0 3.432-.772 4.573-2.129h2.33v6.728h-1.258v1.306h1.258v2.612h-26.879c-1.383 0-2.509-1.125-2.509-2.508zm57.573 2.508h-26.88v-2.612h1.259v-1.306h-1.259v-8.034h-4.277l-.196.26c-.894 1.188-2.256 1.869-3.736 1.869-2.568 0-4.657-2.089-4.657-4.656 0-2.568 2.089-4.656 4.657-4.656 1.481 0 2.843.681 3.736 1.869l.196.26h4.277v-12.382h11.076v2.33c-1.357 1.141-2.129 2.789-2.129 4.573 0 3.288 2.675 5.963 5.962 5.963 3.288 0 5.962-2.675 5.962-5.963 0-1.784-.772-3.432-2.129-4.573v-2.33h6.727v1.26h1.306v-1.26h2.612v26.881c0 1.383-1.125 2.508-2.508 2.508zm2.508-57.573v26.878h-2.612v-1.257h-1.306v1.257h-8.033v4.277l.26.196c1.188.894 1.869 2.256 1.869 3.736 0 2.568-2.089 4.657-4.656 4.657-2.568 0-4.656-2.089-4.656-4.657 0-1.481.681-2.843 1.869-3.736l.26-.196v-4.277h-12.382v-11.076h2.33c1.141 1.357 2.789 2.129 4.573 2.129 3.288 0 5.963-2.675 5.963-5.962 0-3.288-2.675-5.962-5.963-5.962-1.784 0-3.432.772-4.573 2.129h-2.33v-6.725h1.259v-1.306h-1.259v-2.612h26.88c1.383 0 2.508 1.125 2.508 2.508zM5.878 58.122h-1.306v1.306h1.306v-1.306zM5.878 40.282h-1.306v1.274h1.306v-1.274zM5.878 55.574h-1.306v1.274h1.306v-1.274zM5.878 42.831h-1.306v1.274h1.306v-1.274zM5.878 45.379h-1.306v1.274h1.306v-1.274zM5.878 7.151h-1.306v1.274h1.306v-1.274zM5.878 53.025h-1.306v1.274h1.306v-1.274zM5.878 35.185h-1.306v1.274h1.306v-1.274zM5.878 47.928h-1.306v1.274h1.306v-1.274zM5.878 50.477h-1.306v1.274h1.306v-1.274zM5.878 9.7h-1.306v1.275h1.306v-1.275zM5.878 27.54h-1.306v1.274h1.306v-1.274zM5.878 17.346h-1.306v1.274h1.306v-1.274zM5.878 22.443h-1.306v1.275h1.306v-1.275zM5.878 19.895h-1.306v1.274h1.306v-1.274zM5.878 24.992h-1.306v1.274h1.306v-1.274zM5.878 14.797h-1.306v1.274h1.306v-1.274zM5.878 12.249h-1.306v1.274h1.306v-1.274zM5.878 37.734h-1.306v1.274h1.306v-1.274zM5.878 4.571h-1.306v1.306h1.306v-1.306zM28.815 4.571h-1.274v1.306h1.274v-1.306zM23.718 4.571h-1.274v1.306h1.274v-1.306zM26.266 4.571h-1.274v1.306h1.274v-1.306zM51.752 4.571h-1.274v1.306h1.274v-1.306zM54.3 4.571h-1.274v1.306h1.274v-1.306zM21.169 4.571h-1.274v1.306h1.274v-1.306zM49.203 4.571h-1.274v1.306h1.274v-1.306zM44.106 4.571h-1.274v1.306h1.274v-1.306zM41.557 4.571h-1.274v1.306h1.274v-1.306zM36.46 4.571h-1.274v1.306h1.274v-1.306zM46.655 4.571h-1.274v1.306h1.274v-1.306zM16.073 4.571h-1.274v1.306h1.274v-1.306zM13.523 4.571h-1.274v1.306h1.274v-1.306zM56.849 4.571h-1.274v1.306h1.274v-1.306zM18.621 4.571h-1.274v1.306h1.274v-1.306zM8.427 4.571h-1.274v1.306h1.274v-1.306zM10.975 4.571h-1.274v1.306h1.274v-1.306zM39.009 4.571h-1.274v1.306h1.274v-1.306zM59.429 4.571h-1.306v1.306h1.306v-1.306zM59.429 7.151h-1.306v1.274h1.306v-1.274zM59.429 19.895h-1.306v1.274h1.306v-1.274zM59.429 53.025h-1.306v1.274h1.306v-1.274zM59.429 9.7h-1.306v1.274h1.306v-1.274zM59.429 55.574h-1.306v1.274h1.306v-1.274zM59.429 22.443h-1.306v1.274h1.306v-1.274zM59.429 17.346h-1.306v1.274h1.306v-1.274zM59.429 12.248h-1.306v1.274h1.306v-1.274zM59.429 14.797h-1.306v1.274h1.306v-1.274zM59.429 42.831h-1.306v1.274h1.306v-1.274zM59.429 24.991h-1.306v1.274h1.306v-1.274zM59.429 35.185h-1.306v1.274h1.306v-1.274zM59.429 37.734h-1.306v1.274h1.306v-1.274zM59.429 45.379h-1.306v1.274h1.306v-1.274zM59.429 47.928h-1.306v1.274h1.306v-1.274zM59.429 27.54h-1.306v1.274h1.306v-1.274zM59.429 40.283h-1.306v1.275h1.306v-1.275zM59.429 50.476h-1.306v1.274h1.306v-1.274zM59.429 58.122h-1.306v1.306h1.306v-1.306zM13.523 58.122h-1.274v1.306h1.274v-1.306zM39.009 58.122h-1.274v1.306h1.274v-1.306zM28.815 58.122h-1.274v1.306h1.274v-1.306zM23.718 58.122h-1.274v1.306h1.274v-1.306zM16.072 58.122h-1.274v1.306h1.274v-1.306zM36.46 58.122h-1.274v1.306h1.274v-1.306zM10.975 58.122h-1.274v1.306h1.274v-1.306zM18.62 58.122h-1.274v1.306h1.274v-1.306zM21.169 58.122h-1.274v1.306h1.274v-1.306zM26.266 58.122h-1.274v1.306h1.274v-1.306zM46.654 58.122h-1.274v1.306h1.274v-1.306zM41.557 58.122h-1.274v1.306h1.274v-1.306zM54.3 58.122h-1.274v1.306h1.274v-1.306zM56.849 58.122h-1.274v1.306h1.274v-1.306zM49.203 58.122h-1.274v1.306h1.274v-1.306zM51.752 58.122h-1.274v1.306h1.274v-1.306zM44.106 58.122h-1.274v1.306h1.274v-1.306zM8.426 58.122h-1.274v1.306h1.274v-1.306z" />
  </svg>