<svg viewBox="0 0 132 132" xmlns="http://www.w3.org/2000/svg">
  <path
    d="M46.608 64.841c2.972 0 5.788-1.034 7.532-2.766 1.363-1.352 2.083-3.121 2.08-5.112v-35.311c0-4.336-3.559-7.864-7.932-7.864-2.21 0-4.266.887-5.768 2.46-5.647-1.048-10.478 4.006-9.245 9.417-5.37 2.005-6.852 9.075-2.635 13.032-1.883 3.7-.508 8.31 3.166 10.371-.318 3.335 1.619 6.64 4.845 7.969-.016 4.092 3.494 7.804 7.956 7.804zm-9.328-12.452c-1.239-2.055-.537-3.85-.529-3.988h.002c.203-1.835 1.727-3.352 3.764-3.358 1.054 1.027 2.398 1.692 3.89 1.849l.293-2.736c-1.011-.107-1.919-.598-2.559-1.382-.638-.784-.931-1.768-.824-2.77l-2.759-.291c-.103.958.025 1.9.33 2.786-1.958.503-3.51 1.768-4.358 3.706-2.247-1.779-2.545-4.858-.955-7.007l.851-1.148-1.187-.803c-3.514-2.377-2.708-7.511.928-8.96.806 1.857 2.431 3.212 4.365 3.718-.45 1.093-.623 2.313-.406 3.559l2.735-.469c-.358-2.05 1.034-4.007 3.102-4.362l-.474-2.711c-1.183.203-2.219.73-3.079 1.445-1.42.081-2.738-.622-3.456-1.783l.081-.014-.718-1.617c-1.764-3.968 1.921-8.275 6.305-6.954l.93.281.584-.771c.997-1.317 2.511-2.072 4.154-2.072 2.843 0 5.157 2.293 5.157 5.113v15.734c-1.851.044-3.51-1.253-3.835-3.115l-2.735.469c.553 3.171 3.342 5.412 6.483 5.412l.087-.008v16.819c.001 1.265-.425 2.33-1.268 3.167-1.456 1.444-3.831 1.959-5.569 1.959-3.265 0-5.631-3.059-5.113-5.757l.247-1.281-1.278-.312c-1.336-.325-2.466-1.16-3.183-2.349zM81.933 25.664c1.24-5.423-3.618-10.47-9.245-9.417-1.5-1.574-3.556-2.46-5.768-2.46-4.373 0-7.932 3.528-7.932 7.864v35.309c-.005 5.08 4.629 7.88 9.614 7.88 4.465 0 7.971-3.717 7.955-7.804 3.222-1.327 5.164-4.63 4.845-7.969 3.659-2.055 5.058-6.657 3.167-10.371 4.207-3.949 2.746-11.023-2.636-13.032zm-1.149 12.386l.851 1.148c1.583 2.139 1.301 5.221-.956 7.007-.855-1.951-2.416-3.208-4.359-3.707.3-.871.435-1.811.33-2.785l-2.759.291c.222 2.069-1.296 3.932-3.381 4.152l.293 2.735c1.531-.161 2.864-.854 3.886-1.848 2.025.008 3.562 1.502 3.767 3.357h.002l.056.217c.66 2.532-.933 5.429-3.769 6.12l-1.278.312c.078 4.154-.674 7.038-4.865 7.038-3.391 0-6.841-1.651-6.838-5.127v-16.817l.099.008c1.344 0 2.655-.409 3.777-1.194 1.438-1.004 2.395-2.502 2.694-4.22l-2.735-.469c-.173.993-.726 1.859-1.557 2.44-.674.472-1.47.695-2.278.676v-15.735c0-2.819 2.313-5.113 5.157-5.113 1.644 0 3.158.755 4.154 2.072l.583.771c.201-.004 4.368-1.956 6.851 1.819 1.996 3.037-.018 8.476-3.708 8.268-.86-.715-1.896-1.242-3.079-1.446l-.474 2.711c2.068.355 3.46 2.312 3.102 4.362l2.735.469c.217-1.242.044-2.458-.402-3.548 2.101-.548 3.597-1.949 4.365-3.728 1.79.715 2.754 2.255 3.057 3.622.93 4.207-3.052 5.813-3.319 6.139zM39.676 71.379h3.693v9.969l7.578 5.123v3.357c0 2.799 1.776 5.181 4.264 6.136-1.854 6.946-6.308 13.084-12.437 16.969l-1.294.834 1.51 2.308 1.289-.829c6.787-4.302 11.706-11.137 13.689-18.862 3.493-.194 6.283-3.046 6.283-6.557v-3.344l7.592-5.136v-9.969h3.69v-2.752h-35.857v2.752zm17.923 22.292c-2.137 0-3.876-1.724-3.876-3.843v-2.709h7.752v2.709c0 2.119-1.739 3.843-3.876 3.843zm11.468-13.777l-6.613 4.474h-9.691l-6.619-4.474v-8.511h22.922v8.511zM24.334 121.562c-.117-.929-.252-1.856-.408-2.781l-2.738.456c.15.886.28 1.774.392 2.663l2.754-.338zM8.801 89.529c.518.747 1.022 1.499 1.511 2.255l2.336-1.486c-.506-.781-1.026-1.557-1.563-2.328l-2.285 1.56zM20.084 113.957c.22.874.421 1.749.604 2.627l2.719-.558c-.191-.914-.401-1.827-.632-2.736l-2.691.667zM16.652 103.725c.351.832.687 1.669 1.004 2.508l2.599-.966c-.331-.872-.678-1.74-1.042-2.603l-2.561 1.061zM14.371 98.818c.409.807.805 1.619 1.184 2.434l2.521-1.153c-.393-.845-.802-1.684-1.228-2.519l-2.477 1.239zM11.745 94.084c.468.778.919 1.559 1.354 2.345l2.434-1.325c-.451-.814-.919-1.624-1.403-2.428l-2.385 1.408zM18.564 108.778c.287.855.557 1.714.81 2.575l2.664-.769c-.262-.895-.542-1.787-.84-2.675l-2.634.869zM116.488 32.804c-.342-.875-.704-1.743-1.086-2.602l-2.54 1.112c.366.819.712 1.647 1.037 2.481l2.589-.992zM107.583 21.944c.513.74 1.008 1.489 1.483 2.249l2.359-1.452c-.501-.796-1.02-1.582-1.558-2.357l-2.284 1.56zM115.616 38.892l2.67-.748c-.258-.904-.537-1.801-.836-2.691l-2.632.872c.286.848.552 1.705.798 2.567zM105.995 19.765l2.212-1.663c-.572-.746-1.16-1.48-1.767-2.203l-2.133 1.761c.58.691 1.143 1.392 1.688 2.105zM100.647 13.689c.643.636 1.268 1.284 1.876 1.943l2.049-1.855c-.635-.691-1.29-1.369-1.962-2.035l-1.963 1.947zM114.194 27.653c-.423-.839-.864-1.669-1.327-2.488l-2.423 1.341c.441.783.864 1.575 1.267 2.377l2.483-1.229zM125.313 88.588l-11.608-27.615v-6.204c0-14.423-5.67-27.989-15.967-38.196-10.296-10.207-23.979-15.828-38.529-15.828-14.563 0-28.254 5.621-38.549 15.829-10.297 10.206-15.967 23.771-15.967 38.196 0 11.046 3.345 21.671 9.671 30.729 9.558 13.684 14.611 29.041 14.611 44.411v1.991h67.282v-20.152h6.054c3.898 0 7.068-3.142 7.068-7.005v-9.788h11.655c1.554 0 2.997-.766 3.859-2.048.864-1.282 1.021-2.897.422-4.319zm-2.731 2.793c-.351.523-.916.823-1.55.823h-14.431v12.539c0 2.346-1.926 4.254-4.292 4.254h-23.385c-3.68 0-6.672-2.967-6.672-6.614h-2.776c0 5.164 4.238 9.366 9.447 9.366h14.555v17.399h-61.735c-.164-15.676-5.376-31.295-15.1-45.217-6.004-8.595-9.178-18.679-9.178-29.162 0-13.69 5.382-26.564 15.154-36.251 9.773-9.687 22.765-15.022 36.587-15.022 13.808 0 26.794 5.335 36.567 15.022 9.773 9.688 15.155 22.562 15.155 36.251v6.755l11.821 28.123c.244.58.182 1.212-.169 1.734zM106.709 62.088l-2.562 1.059 1.069 2.54 2.561-1.059-1.068-2.54zM110.556 78.388l1.068 2.54 2.561-1.058-1.067-2.54-2.562 1.058zM108.849 67.169l-2.561 1.057 1.066 2.54 2.562-1.057-1.067-2.54zM110.979 72.248l-2.561 1.059 1.068 2.54 2.562-1.059-1.069-2.54zM16.409 68.107l-2.648.822c.285.902.598 1.795.939 2.679l2.591-.983c-.32-.831-.614-1.671-.882-2.518zM14.357 54.769c0-.826.022-1.648.068-2.467l-2.77-.153c-.049.869-.073 1.743-.073 2.62v.207h2.775v-.207zM15.112 62.932l-2.729.498c.174.931.375 1.855.604 2.77l2.694-.662c-.216-.862-.407-1.73-.569-2.607zM18.469 79.233c.495.805 1.014 1.598 1.557 2.377l2.282-1.567c-.514-.734-1.003-1.481-1.468-2.24l-2.372 1.43zM16.286 41.813l-2.654-.802c-.279.904-.527 1.816-.749 2.737l2.7.639c.209-.866.443-1.724.703-2.574zM15.036 46.997l-2.735-.473c-.163.927-.3 1.862-.408 2.803l2.757.313c.103-.887.232-1.768.386-2.643zM14.448 57.638l-2.77.173c.06.945.149 1.886.267 2.821l2.754-.34c-.11-.88-.194-1.765-.251-2.655zM18.33 73.087l-2.529 1.134c.393.86.813 1.708 1.258 2.545l2.456-1.283c-.42-.789-.816-1.587-1.184-2.396zM53.221 122.318h-2.776v2.752h2.776v-2.752zM64.323 122.318h-2.776v2.752h2.776v-2.752zM69.875 122.318h-2.775v2.752h2.775v-2.752zM58.773 122.318h-2.775v2.752h2.775v-2.752zM105.093 124.322h-2.776v2.752h2.776v-2.752zM116.195 124.322h-2.776v2.752h2.776v-2.752zM110.644 124.322h-2.776v2.752h2.776v-2.752zM3.658 120.355h-2.776v2.751h2.776v-2.751zM9.209 120.355h-2.776v2.751h2.776v-2.751zM14.76 120.355h-2.775v2.751h2.775v-2.751zM120.015 106.509h-2.775v2.751h2.775v-2.751zM125.567 106.509h-2.776v2.751h2.776v-2.751zM131.117 106.509h-2.775v2.751h2.775v-2.751zM8.699 4.393h-2.776v2.752h2.776v-2.752zM14.251 4.393h-2.776v2.752h2.776v-2.752zM19.801 4.393h-2.776v2.752h2.776v-2.752z" />
  </svg>